<?xml version="1.0" standalone="no"?>
<!DOCTYPE svg PUBLIC "-//W3C//DTD SVG 1.1//EN" "http://www.w3.org/Graphics/SVG/1.1/DTD/svg11.dtd" >
<svg xmlns="http://www.w3.org/2000/svg" xmlns:xlink="http://www.w3.org/1999/xlink" version="1.1">
<metadata></metadata>
<defs>
<font id="webfontregular" horiz-adv-x="819" >
<font-face units-per-em="2048" ascent="1430" descent="-618" />
<missing-glyph horiz-adv-x="389" />
<glyph unicode="&#xfb01;" horiz-adv-x="868" d="M0 977l156 12l6 66q6 65 17.5 116.5t36 103.5t61 87t95 56.5t134.5 21.5q59 0 113 -15t83 -36l-36 -119q-84 43 -174 43q-114 0 -170 -62.5t-56 -173.5q0 -8 0.5 -16t2 -28t3.5 -44l500 25l-51 -998l-88 -32l-27 895l-321 22l24 -878l-186 -39l33 915l-138 -12z" />
<glyph unicode="&#xfb02;" horiz-adv-x="868" d="M33 879l10 69l119 27l8 67q51 398 395 398q136 0 232 -54l-76 -1376l-96 -26l-17 1304q-60 27 -121 27q-55 0 -93.5 -20.5t-60 -58.5t-31.5 -81.5t-13 -101.5l-4 -70l176 27l24 -131l-213 14l17 -893l-176 -16l57 901z" />
<glyph horiz-adv-x="0" />
<glyph horiz-adv-x="682" />
<glyph unicode=" "  horiz-adv-x="389" />
<glyph unicode="&#x09;" horiz-adv-x="389" />
<glyph unicode="&#xa0;" horiz-adv-x="389" />
<glyph unicode="!" horiz-adv-x="415" d="M92 1327l195 53l-13 -997l-92 -18zM119 84q0 47 26.5 76.5t67.5 29.5q44 0 69 -28t25 -76t-28 -78t-74 -24q-40 5 -63 30.5t-23 69.5z" />
<glyph unicode="&#x22;" horiz-adv-x="632" d="M109 1403l149 -23l-45 -432l-80 -16zM373 1397l153 6l-24 -471l-80 -8z" />
<glyph unicode="#" horiz-adv-x="813" d="M49 412l37 114l125 2l43 310l-143 -15l-21 66l174 16l66 438l59 -30l-43 -406l164 -4l45 395l70 17l-33 -406l145 39l21 -117l-172 -2l-29 -354l148 4l16 -67l-170 -9l-33 -403l-110 -16l51 424l-168 22l-45 -457l-119 11l70 448zM305 518l160 -35l37 348l-162 9z" />
<glyph unicode="$" d="M123 197q43 -33 107 -51.5t126 -18.5q91 0 146 72t55 174q0 84 -43 146.5t-135 119.5q-56 33 -96.5 62.5t-79.5 70.5t-59.5 91.5t-20.5 109.5q0 122 71.5 209t182.5 108l39 195l71 2l-6 -189q133 -9 205 -65l-86 -88q-99 43 -172 43q-56 0 -98 -19t-62.5 -49t-29.5 -59 t-9 -57q0 -50 13.5 -87t46 -67t66 -50t94.5 -50q58 -29 103 -61t84 -76t60 -103.5t21 -130.5q0 -129 -76.5 -222t-187.5 -122l36 -203l-129 12l15 191q-126 -5 -246 71z" />
<glyph unicode="%" horiz-adv-x="1363" d="M66 967q0 176 69.5 278.5t181.5 102.5q122 0 193.5 -122t71.5 -308q0 -97 -22 -172t-59 -118.5t-79.5 -65t-87.5 -21.5q-121 0 -194.5 120t-73.5 306zM180 913q0 -53 7 -100.5t22.5 -89t43.5 -66t66 -24.5q41 0 71.5 30.5t47 82t24 107t7.5 116.5q0 286 -141 286 q-50 0 -85 -52.5t-49 -127t-14 -162.5zM266 23l766 1357l55 -22l-720 -1389zM782 365q0 194 77 312.5t196 115.5q45 0 86.5 -21.5t77 -65.5t56.5 -120t21 -174q0 -199 -75.5 -313.5t-190.5 -114.5q-104 0 -176 98t-72 283zM897 420q0 -141 42 -242.5t116 -101.5 q64 0 98.5 71.5t34.5 196.5q0 65 -8.5 125t-26.5 114.5t-51 86.5t-78 30q-60 0 -93.5 -74t-33.5 -206z" />
<glyph unicode="&#x26;" horiz-adv-x="1030" d="M63 365q0 232 218 399l2 6q-103 161 -103 305q0 132 76.5 227t206.5 95q102 0 173 -73.5t71 -207.5q0 -106 -57.5 -194t-190.5 -177v-6q84 -132 284 -397q15 31 26.5 64.5t18 59t11.5 63t6.5 56t4 59t3.5 52.5l156 45q-18 -165 -48.5 -296t-93.5 -224q10 -13 58 -88.5 t100 -148.5l-100 16q-6 6 -52.5 52t-82.5 87q-155 -155 -336 -155q-84 0 -152.5 32.5t-111 87t-65 121.5t-22.5 140zM201 416q0 -72 26.5 -138.5t86.5 -112.5t141 -40q64 0 124.5 40.5t96.5 104.5q-185 218 -354 430q-52 -52 -86.5 -125.5t-34.5 -158.5zM315 1063 q0 -110 70 -234q99 63 149 132t50 159q0 68 -29 116t-92 52q-35 0 -62 -14t-42 -38.5t-25 -48.5t-13.5 -53.5t-4.5 -43t-1 -27.5z" />
<glyph unicode="'" horiz-adv-x="354" d="M90 1415l182 -33q-10 -147 -27.5 -243t-54.5 -219l-49 -7q0 56 -10 226q-2 40 -8.5 85.5t-18 107.5t-14.5 83z" />
<glyph unicode="(" horiz-adv-x="526" d="M129 627q0 269 61 473t154 342l158 -27q-122 -171 -187 -400t-65 -493q0 -452 194 -772l-71 27q-117 162 -180.5 382t-63.5 468z" />
<glyph unicode=")" horiz-adv-x="526" d="M8 1436l166 -23q97 -136 159.5 -341t61.5 -484q-1 -190 -36.5 -359t-83 -277.5t-109.5 -197.5l-72 17q180 317 180 745q0 92 -9.5 188t-35 223.5t-82.5 261t-139 247.5z" />
<glyph unicode="*" horiz-adv-x="772" d="M53 1004l21 131l225 -50l2 5l-113 243l50 47l145 -250h4l119 267l96 -111l-166 -182v-4l232 53l49 -149l-281 30v-6l178 -250l-84 -16l-163 219h-5l-67 -238l-139 43l190 258l-2 5z" />
<glyph unicode="+" horiz-adv-x="1220" d="M84 575l473 25v490l137 12l-22 -500l469 10l-25 -139l-454 29l-39 -537l-78 19l12 512l-453 6z" />
<glyph unicode="," horiz-adv-x="387" d="M39 -258q31 85 66.5 225.5t50.5 241.5l168 -33q-9 -34 -21.5 -68.5t-28.5 -70t-28.5 -62.5t-32.5 -62.5t-29.5 -52t-29.5 -50.5t-23 -39z" />
<glyph unicode="-" horiz-adv-x="585" d="M61 479l15 78l438 47l31 -117z" />
<glyph unicode="." horiz-adv-x="387" d="M106 113q0 98 66 98q17 0 34.5 -5t37 -16.5t31.5 -36t12 -59.5q0 -38 -33.5 -78.5t-77.5 -40.5q-70 0 -70 138z" />
<glyph unicode="/" horiz-adv-x="598" d="M20 -82l490 1450l84 29l-436 -1530z" />
<glyph unicode="0" d="M59 651q0 336 99 516.5t274 180.5q154 0 241 -173.5t87 -492.5q0 -338 -97.5 -518t-273.5 -180q-150 0 -240 172.5t-90 494.5zM195 803q0 -113 13 -228t41 -225.5t80 -179t120 -66.5l2 2q86 3 128 114t42 302q0 77 -6 161.5t-23 184t-43 176.5t-71.5 129t-102.5 52 q-51 0 -87.5 -36t-56 -98.5t-28 -133t-8.5 -154.5z" />
<glyph unicode="1" d="M147 1161l287 160l74 -8l55 -1313l-172 27l23 1140h-4l-228 -75z" />
<glyph unicode="2" d="M43 18l16 91l121 137q87 99 146 174t120 171.5t92 192t31 189.5q0 33 -4 64t-16.5 66.5t-32.5 62t-56 44t-83 17.5q-95 0 -197 -58l-41 66q149 121 279 121q147 0 223 -84t76 -242q0 -173 -102.5 -363t-305.5 -417l-123 -131l17 -4l479 22l18 -153z" />
<glyph unicode="3" d="M63 20l25 162q115 -69 221 -69q119 0 182.5 79.5t63.5 200.5q0 125 -74.5 200t-195.5 81l-47 2l-17 129q45 -4 62 -4q30 0 61.5 6t67.5 23.5t63.5 43.5t45.5 71t18 102q0 93 -50 151.5t-143 58.5q-92 0 -166 -45l-69 43q45 38 111 65.5t138 27.5q140 0 221 -95.5 t81 -230.5q0 -100 -52.5 -182.5t-150.5 -128.5v-2q96 -31 158.5 -119t62.5 -234q0 -172 -109.5 -281.5t-277.5 -109.5q-64 0 -127 15t-103 40z" />
<glyph unicode="4" d="M6 477l529 854h139l-43 -839l157 18l-10 -96l-153 -25v-350l-152 -39l33 387l-483 -29zM195 506l2 -4l331 -23l-18 424q-7 148 -4 258h-8q-48 -126 -103 -250z" />
<glyph unicode="5" d="M82 186q36 -26 98.5 -46.5t122.5 -20.5q113 0 190.5 87t77.5 240q0 60 -15 108.5t-37.5 79.5t-55 53.5t-61 34t-61.5 18t-50.5 7.5t-34.5 1q-62 0 -150 -13l107 596l489 8l-32 -96l-389 -61l-31 -353q27 9 78 9q78 0 146 -26t122 -76t85.5 -131.5t31.5 -184.5 q0 -191 -114 -315.5t-294 -124.5q-140 0 -219 51z" />
<glyph unicode="6" d="M70 590q0 89 12 174.5t44 179.5t81.5 169.5t132 136.5t188.5 89q17 4 36 8t37 7l24 4l49 -133q-183 0 -313.5 -143t-167.5 -384l16 -2q85 146 235 154h21q137 0 225 -119.5t88 -324.5q0 -190 -90 -306t-244 -116q-118 0 -203.5 80.5t-128 216t-42.5 309.5zM207 453 q0 -171 54.5 -265t154.5 -94q93 0 152 105t59 268q0 131 -49.5 200.5t-135.5 77.5h-8q-59 0 -116 -40t-91 -111q-20 -31 -20 -141z" />
<glyph unicode="7" d="M49 1307l660 34l2 -127l-398 -1194l-188 -20l491 1186v4l-516 33z" />
<glyph unicode="8" d="M45 305q0 62 19.5 119.5t45.5 96.5t65.5 77.5t65.5 58t60 41.5v4q-81 52 -127.5 133t-46.5 164q0 145 95.5 247t234.5 102q73 0 129 -26.5t87.5 -70t47.5 -93.5t16 -103q0 -101 -52 -188t-150 -148v-6q204 -132 204 -342q0 -162 -103.5 -274.5t-264.5 -112.5 q-80 0 -144 28t-102.5 74.5t-59 102.5t-20.5 116zM209 356q0 -124 60 -199t161 -69q16 0 36 4t48.5 19t51.5 38.5t39 68t16 101.5q0 124 -66.5 202t-183.5 132q-79 -53 -120.5 -131t-41.5 -166zM252 1024q0 -79 38.5 -137t106.5 -107q77 34 127 94t62 142q4 23 4 61 q0 78 -33.5 128.5t-99.5 62.5l-23 2q-86 0 -134 -74.5t-48 -171.5z" />
<glyph unicode="9" d="M80 862q0 131 46 241.5t131 177.5t192 67q105 0 178.5 -64.5t107 -171.5t33.5 -246q0 -195 -57.5 -366.5t-152.5 -288t-218.5 -183.5t-253.5 -67l33 154q103 0 192 37.5t129 78.5q134 138 154 392h-4q-32 -56 -91.5 -89.5t-136.5 -33.5q-127 0 -204.5 99.5t-77.5 262.5z M209 946q0 -149 53.5 -242.5t157.5 -93.5q92 0 150.5 69.5t54.5 133.5q-14 219 -79 323.5t-163 96.5q-20 0 -41.5 -7.5t-46 -28.5t-43 -52t-31 -82.5t-12.5 -116.5z" />
<glyph unicode=":" horiz-adv-x="387" d="M104 117q0 31 9 51.5t24.5 27.5t25 9t21.5 2q44 0 77.5 -29.5t33.5 -81.5q0 -44 -30.5 -83.5t-69.5 -39.5q-40 0 -65.5 50t-25.5 94zM117 834q0 129 71 129q41 0 73.5 -36t35.5 -71q2 -39 -11.5 -67t-36 -40t-39.5 -17t-30 -5q-32 0 -47.5 29.5t-15.5 77.5z" />
<glyph unicode=";" horiz-adv-x="387" d="M10 -254q45 89 94 241.5t66 258.5l182 -27q-42 -115 -115 -248.5t-126 -201.5zM135 846q0 42 28.5 82.5t63.5 40.5q32 0 62 -41t30 -74q0 -98 -96 -113q-41 -6 -64.5 22t-23.5 83z" />
<glyph unicode="&#x3c;" horiz-adv-x="1220" d="M92 551l901 575l60 -145l-781 -420l2 -18l807 -418l-51 -62l-907 412z" />
<glyph unicode="=" horiz-adv-x="1220" d="M82 442l1057 -49l-33 -88h-991zM82 670l33 88l1024 73v-137z" />
<glyph unicode="&#x3e;" horiz-adv-x="1220" d="M102 969l33 67l918 -430l-2 -108l-901 -547l-9 162l746 391l-2 18z" />
<glyph unicode="?" horiz-adv-x="657" d="M80 1233l18 113q30 19 88.5 33t118.5 14h19q141 -7 211.5 -74.5t70.5 -183.5v-21q-2 -38 -12.5 -74.5t-33.5 -77.5t-37.5 -64t-49 -71.5t-45.5 -64.5q-52 -75 -75 -142t-23 -151q0 -23 4 -80l-64 -37q-20 117 -20 156q0 137 69 272q37 72 55 111.5t34 94t16 101.5 q0 97 -45.5 157.5t-132.5 60.5q-49 0 -93.5 -22t-72.5 -50zM188 100q3 101 86 101q42 0 76.5 -38.5t34.5 -82.5q-2 -50 -22.5 -73t-77.5 -23q-32 0 -64.5 36t-32.5 80z" />
<glyph unicode="@" horiz-adv-x="1247" d="M70 565q0 168 55.5 325t148.5 273t222 186t268 70q209 0 327.5 -138t118.5 -363q0 -273 -103 -436t-245 -163q-59 0 -93 42t-28 124l-4 4q-51 -88 -106.5 -120.5t-118.5 -32.5q-77 0 -125.5 56.5t-48.5 164.5q0 70 17 142t53.5 140t87 121t123.5 85t157 32q85 0 150 -28 l-62 -426q-14 -82 -14 -119q0 -101 59 -101q75 0 115.5 123t40.5 330q0 220 -93 339.5t-276 119.5q-224 0 -358.5 -196t-134.5 -529q0 -248 116 -386t320 -138q76 0 117.5 9.5t99.5 39.5l41 -35q-179 -111 -319 -111q-108 0 -199 37.5t-160.5 110t-109 187.5t-39.5 261z M424 537q0 -38 10.5 -63.5t27 -35.5t28 -13t22.5 -3q68 0 136 72.5t97 164.5l89 279q-26 18 -89 18q-65 0 -126.5 -40.5t-103 -103t-66.5 -136t-25 -139.5z" />
<glyph unicode="A" horiz-adv-x="942" d="M51 0l359 1397l131 -37l350 -1360l-199 -16l-49 450l-324 17l-157 -435zM340 526l278 23l-81 379q-44 216 -58 303l-14 -8z" />
<glyph unicode="B" horiz-adv-x="872" d="M111 1384q99 31 194 31q102 0 191.5 -26.5t144.5 -71.5q119 -98 119 -287q0 -102 -63.5 -180t-159.5 -100l4 -7q126 -44 201 -152.5t75 -262.5q0 -151 -101 -244q-100 -92 -314 -92h-5q-109 0 -254 49zM264 139q19 -8 59 -15t64 -7q117 0 200 86.5t83 222.5 q0 112 -87 198q-84 84 -198 83h-8l-84 -2zM297 815l92 -14q28 -4 41 -4q93 0 157 61t64 150q0 105 -58.5 164.5t-189.5 72.5q-25 4 -63 4q-27 0 -35 -2z" />
<glyph unicode="C" horiz-adv-x="827" d="M66 612q0 51 2 78q7 130 30.5 238.5t65.5 198t101 151t140.5 95.5t180.5 34q159 0 229 -49l-59 -154q-76 37 -164 37q-162 0 -268.5 -161t-106.5 -421q0 -266 102 -424.5t291 -158.5q51 0 119 20l33 -63q-96 -49 -223 -49h-19q-73 4 -137 26t-123 69.5t-101.5 117 t-67.5 176t-25 239.5z" />
<glyph unicode="D" horiz-adv-x="970" d="M104 27l50 1351q97 23 204 23h39q90 -6 164 -29.5t126 -59t91.5 -85.5t63 -102.5t38 -117t20 -123t5.5 -124.5q0 -760 -575 -760q-108 0 -226 27zM268 1284l31 -1128q43 -13 84 -13q70 0 126 18.5t93 48t64.5 74t42 87.5t23 99t11 98t2.5 94q0 107 -12 197.5t-32 154.5 t-49 114.5t-60.5 82t-68.5 51.5t-71.5 28t-70.5 8q-69 0 -113 -14z" />
<glyph unicode="E" horiz-adv-x="757" d="M141 -16l21 1386l502 33l32 -156l-411 25l32 -469l328 -10l29 -86l-352 -50l-58 -507l441 -23l14 -86z" />
<glyph unicode="F" horiz-adv-x="739" d="M106 1380h549l-28 -176l-394 45l48 -479l346 8l26 -73l-356 -62l-23 -600l-131 -61z" />
<glyph unicode="G" horiz-adv-x="952" d="M70 674q1 187 47.5 329.5t125 225.5t173 123.5t200.5 40.5q124 0 222 -54l-66 -69q-72 28 -151 28q-185 0 -295.5 -142.5t-110.5 -401.5q0 -290 100 -448.5t285 -158.5q102 0 160 39l-29 404l-203 -35l-12 158l373 -19l-17 -671q-49 -21 -129.5 -37.5t-152.5 -16.5 q-102 0 -197 38.5t-168 115.5q-75 80 -115 222t-40 329z" />
<glyph unicode="H" horiz-adv-x="995" d="M117 10l28 1391l189 -21l-68 -610l459 14l-31 596l166 17l14 -1397l-133 -12l-18 643l-451 26l-49 -667z" />
<glyph unicode="I" horiz-adv-x="405" d="M123 -16l14 1413l109 -39l39 -1354z" />
<glyph unicode="J" horiz-adv-x="567" d="M-14 131q38 -10 86 -10q50 0 88 13.5t69.5 45t49.5 91t20 145.5l27 964l106 -26l27 -961v-26q0 -383 -318 -383q-64 0 -110 16z" />
<glyph unicode="K" horiz-adv-x="856" d="M98 1397l185 -45l-13 -664h4l322 709l174 -35l-338 -594l430 -731l-174 -86l-326 731l-81 -137l-9 -574l-112 17z" />
<glyph unicode="L" horiz-adv-x="735" d="M102 1346l156 32l8 -1288l414 57l45 -122l-563 -35z" />
<glyph unicode="M" horiz-adv-x="1284" d="M82 14l108 1348l160 35l281 -1149h16l248 1081l229 51l41 -1380l-92 16l-69 1139h-9l-319 -1171l-92 34l-301 1125h-7l-30 -1176z" />
<glyph unicode="N" horiz-adv-x="1001" d="M92 1350l217 8l439 -1168h4l-13 1219l152 -29l-49 -1357l-105 -23l-487 1167h-4q-1 -73 -1 -143q0 -278 13 -500l29 -524l-115 -41z" />
<glyph unicode="O" horiz-adv-x="983" d="M70 657q0 190 36 335.5t98.5 232t141.5 129.5t172 43q200 0 298.5 -162t98.5 -504q0 -148 -19 -268t-53.5 -199t-77 -136t-94 -87.5t-99.5 -43.5t-99 -13q-96 0 -168.5 36.5t-126 115t-81 209.5t-27.5 312zM213 760q0 -185 31.5 -329.5t100.5 -234.5t167 -90q58 0 103 32 t73.5 83.5t46.5 122.5t25.5 143t7.5 152q0 89 -9 174.5t-31.5 170t-55.5 148t-85 103t-116 39.5q-61 0 -107 -30t-74 -78t-46 -117t-24.5 -138.5t-6.5 -150.5z" />
<glyph unicode="P" horiz-adv-x="843" d="M117 18l45 1348q108 23 219 23q83 0 155.5 -28t128 -80.5t87.5 -133.5t32 -180q0 -201 -103 -308.5t-314 -107.5q-33 0 -101 10l31 -573zM270 1264l17 -551q47 -8 96 -8q54 0 97 14.5t69.5 35.5t46 52.5t29 57t14.5 59t5.5 48.5t0.5 34q0 49 -10.5 91t-35.5 82 t-75.5 64.5t-122.5 28.5q-5 0 -15.5 1t-16.5 1q-54 0 -99 -10z" />
<glyph unicode="Q" horiz-adv-x="983" d="M70 688q0 709 438 709q187 0 297 -182.5t110 -516.5q0 -290 -69 -446.5t-197 -212.5v-6q58 -23 116.5 -28t192.5 -5l-69 -180q-230 81 -338 155q-31 15 -41 18t-31 3q-187 0 -298 176.5t-111 515.5zM211 555q0 -91 12.5 -168.5t38.5 -142t72.5 -101.5t109.5 -37 q67 0 119 32t86 83.5t59 130t38 159.5t22 183q6 67 6 140q0 89 -11.5 164.5t-36.5 139t-70.5 100t-106.5 36.5q-72 0 -131 -48t-96.5 -123.5t-63 -173t-36.5 -191.5t-11 -183z" />
<glyph unicode="R" horiz-adv-x="860" d="M106 1370q99 27 250 27q98 0 178.5 -37t131 -97.5t77.5 -135.5t27 -154t-26.5 -142t-64.5 -97t-71.5 -51.5t-56.5 -18.5v-5q173 -52 231 -297q9 -40 19.5 -76.5t21 -66t19.5 -52.5t19.5 -45t16.5 -33.5t15.5 -29t11.5 -20.5l-192 -39q-39 80 -95 340q-33 146 -92 209 t-166 74l-98 10l27 -619l-125 -45zM272 721l93 6q29 2 62 11t72 31.5t70 54.5t51.5 85t20.5 119q0 52 -13 94t-32 68t-48.5 44.5t-53.5 27.5t-58 14t-50 5.5t-40 0.5q-36 0 -57 -6z" />
<glyph unicode="S" horiz-adv-x="772" d="M53 61l53 80q97 -63 205 -63q114 0 182 71.5t68 174.5q0 92 -49 160t-150 153q-23 20 -67.5 56t-67 55.5t-54.5 54t-47.5 64.5t-27.5 74t-12 95q0 156 103 256.5t266 100.5q140 0 207 -45l-39 -144q-73 49 -179 49q-107 0 -166 -56.5t-59 -135.5q0 -102 54.5 -166.5 t166.5 -122.5q54 -29 92.5 -54t78.5 -60.5t64.5 -73.5t40 -90t15.5 -113q0 -113 -57 -204t-153 -141t-210 -50q-72 0 -144.5 22.5t-113.5 52.5z" />
<glyph unicode="T" horiz-adv-x="759" d="M27 1354l706 26l-22 -75l-238 -33l-8 -1303l-90 15l-90 1261l-217 -45z" />
<glyph unicode="U" horiz-adv-x="987" d="M109 1343l106 27l76 -901q31 -360 237 -360q211 0 211 301q0 39 -2 59l-55 885l192 53l-16 -918q-4 -247 -103.5 -376t-267.5 -129q-347 0 -358 485z" />
<glyph unicode="V" horiz-adv-x="894" d="M-10 1382l186 -28l264 -1172h6l297 1186l101 29l-277 -1379l-164 -34z" />
<glyph unicode="W" horiz-adv-x="1394" d="M25 1321l163 59l111 -690q52 -275 76 -495h8l244 1157l139 28l141 -675q58 -274 86 -457h4q41 229 84 450l133 682l105 -26l-227 -1354l-209 63l-88 623q-28 196 -70 354h-6l-279 -1007l-114 -25z" />
<glyph unicode="X" horiz-adv-x="856" d="M0 1380l80 27l344 -580h4q28 98 180 553h94l-192 -661l358 -719l-178 -43l-256 629h-4l-162 -568l-180 -18l246 731z" />
<glyph unicode="Y" horiz-adv-x="851" d="M49 1409l107 -29l311 -639h4l176 609l211 30l-362 -782l-45 -598l-119 16l12 576z" />
<glyph unicode="Z" horiz-adv-x="790" d="M20 41l525 1216v5l-477 -35l45 153l610 -34l16 -82l-561 -1114l4 -21l578 -53l2 -76l-686 -31z" />
<glyph unicode="[" horiz-adv-x="526" d="M152 1391l319 28l23 -123l-170 23l-60 -1456l199 22l6 -131l-291 23z" />
<glyph unicode="\" horiz-adv-x="598" d="M-16 1350l135 47l459 -1479l-95 16z" />
<glyph unicode="]" horiz-adv-x="526" d="M27 1380l323 43l23 -1652l-303 -21l22 121l184 -12l-65 1421l-176 31z" />
<glyph unicode="^" horiz-adv-x="1220" d="M145 395l379 940l158 -26l393 -899l-151 -56l-293 860h-6l-389 -837z" />
<glyph unicode="_" horiz-adv-x="1024" d="M0 -154h1024v-102h-1024v102z" />
<glyph unicode="`" horiz-adv-x="614" d="M84 1358l143 43l166 -301l-61 12z" />
<glyph unicode="a" horiz-adv-x="765" d="M68 272q0 110 59.5 190t155.5 123t225 58q-4 60 -9 95t-16.5 70t-31.5 52.5t-52 28t-80 10.5q-96 0 -172 -45l-36 55q17 15 44.5 33.5t87 40t117.5 21.5q289 0 289 -338v-428q0 -119 17 -226l-82 -30l-39 141h-10q-22 -41 -52 -70t-60.5 -43t-57 -20t-52.5 -6 q-106 0 -175.5 79t-69.5 209zM193 260q0 -80 39.5 -120t93.5 -40q59 0 104.5 39.5t65.5 108.5q3 15 8 57l20 184q-50 5 -75 5q-124 0 -190 -55t-66 -179z" />
<glyph unicode="b" horiz-adv-x="860" d="M92 1384l172 27l-22 -559l10 6q62 141 217 148h14q63 0 119 -34.5t101 -101t71.5 -174.5t26.5 -243q0 -127 -25.5 -220.5t-70.5 -145.5t-99 -76.5t-119 -24.5q-142 0 -225 141h-8l-4 -131l-103 -12q0 99 -4 231zM254 389v-10q0 -53 18 -111q20 -63 63.5 -110t96.5 -47 q99 0 151 103.5t62 281.5q0 9 1 26t1 25q0 168 -52.5 250t-137.5 82q-65 0 -124.5 -60.5t-66.5 -183.5z" />
<glyph unicode="c" horiz-adv-x="661" d="M70 489q0 236 107.5 376.5t295.5 140.5q108 0 166 -33l-59 -144q-45 35 -127 35t-138 -53.5t-79 -135t-23 -186.5q0 -193 77 -305t199 -112q71 0 125 28l21 -69q-80 -47 -191 -47q-171 0 -272.5 132.5t-101.5 372.5z" />
<glyph unicode="d" horiz-adv-x="858" d="M70 498q0 516 319 516q144 0 211 -129h4l-65 510l166 35l6 -1135q0 -39 6 -159.5t6 -135.5l-117 -29l8 144h-6q-33 -52 -91.5 -92.5t-137.5 -40.5q-135 0 -222 137.5t-87 378.5zM195 477q0 -160 50.5 -252t135.5 -92q80 0 133 68t59 178l15 252q1 18 1 35q-1 100 -41 168 q-48 80 -134 79q-66 0 -117.5 -67t-76.5 -165t-25 -204z" />
<glyph unicode="e" horiz-adv-x="772" d="M70 475q0 149 38 267.5t116 191t184 72.5q4 0 13 -1t13 -1q279 -23 279 -420q0 -44 -6 -123l-517 43v-22q0 -78 12 -139q14 -70 39 -111t62 -68.5t71.5 -38t76.5 -14.5q5 0 15 -1t15 -1q84 0 150 34l41 -141q-65 -35 -197 -35q-92 0 -163.5 31t-116 80.5t-73.5 117.5 t-40.5 136.5t-11.5 142.5zM213 610l350 -10q0 140 -44.5 221.5t-123.5 81.5q-57 0 -98.5 -45t-60.5 -108.5t-23 -139.5z" />
<glyph unicode="f" horiz-adv-x="471" d="M25 981l125 -4v76q0 228 86 321q79 82 190 82q98 0 145 -31l-28 -139q-42 25 -111 25q-76 0 -114 -67q-32 -57 -32 -154q0 -18 1 -37l4 -66h182l14 -78l-194 -18l-49 -864l-111 -33l19 880l-113 -28z" />
<glyph unicode="g" horiz-adv-x="856" d="M70 489q0 131 29.5 233.5t78 162.5t105.5 90.5t118 30.5q133 0 207 -136h4l-26 138l125 -19q-4 -66 -4 -119q0 -80 8 -184l47 -555q4 -39 4 -108q0 -216 -97 -320t-290 -104q-63 0 -137 22t-119 49l57 76q88 -47 193 -47q225 0 225 324v110h-4q-28 -63 -84.5 -98 t-128.5 -35q-138 0 -224.5 134.5t-86.5 354.5zM209 608q0 -117 25 -219.5t81.5 -173t135.5 -70.5q80 0 117 71q31 59 31 144q0 18 -1 37l-12 275q-4 55 -27 108t-69 93t-105 40q-84 0 -130 -82t-46 -223z" />
<glyph unicode="h" horiz-adv-x="864" d="M137 23v1361l146 19l-27 -533h10q38 61 90 95q61 39 142 39q47 0 90 -19t80.5 -58t57.5 -111q17 -60 18 -135q0 -15 -1 -30l-28 -616l-142 -35l48 621q2 20 2 38q0 29 -4 55q-6 44 -23 82.5t-53 61.5t-86 23q-77 0 -127 -72t-58 -166l-28 -627z" />
<glyph unicode="i" horiz-adv-x="380" d="M76 1262q0 50 26.5 75t61.5 25q42 0 70 -32.5t28 -76.5q0 -39 -22 -64.5t-60 -29.5q-35 0 -58 14t-32 35t-11.5 33t-2.5 21zM109 997l116 -22l60 -959l-164 -16z" />
<glyph unicode="j" horiz-adv-x="391" d="M-70 -291q44 9 75.5 22.5t53.5 38t35 51t21.5 73.5t12.5 91.5t7 118.5l41 895l98 23l13 -959v-13q0 -141 -21 -222q-23 -86 -78 -145q-84 -90 -188 -93zM113 1278q0 42 25 68t63 26q49 0 73.5 -34t24.5 -76q0 -45 -25 -70q-21 -23 -57 -23h-8q-40 0 -68 30.5t-28 78.5z " />
<glyph unicode="k" horiz-adv-x="743" d="M82 1423l166 -43l22 -854h4q8 18 27.5 53.5t26.5 53.5l164 395l145 -96l-209 -357l309 -591l-108 16l-307 457l-46 -74l-8 -367l-100 -32z" />
<glyph unicode="l" horiz-adv-x="380" d="M96 -47l54 1487l96 -60l16 -1396z" />
<glyph unicode="m" horiz-adv-x="1325" d="M106 993l107 -6l14 -137h11q29 70 93 113t152 43q75 0 133 -40t86 -122h5q26 50 61 86t70 53.5t64 25t54 7.5q46 0 87 -13.5t80 -44.5t62 -93t23 -148q0 -40 -2 -60l-53 -661l-129 8l41 621q1 21 1 40q0 92 -31 155q-38 77 -130 77q-80 0 -126 -73.5t-46 -188.5l4 -635 l-100 6l-45 639q-3 53 -10.5 91t-23.5 75t-46.5 56.5t-75.5 19.5q-82 1 -132 -81q-45 -73 -45 -160q0 -10 1 -21l49 -613l-159 -12l-31 739q-4 111 -13 254z" />
<glyph unicode="n" horiz-adv-x="864" d="M115 8q3 63 10 182.5t11 190.5t9 173q5 104 7 172q2 55 2 112v28q0 72 -4 123l90 -18l6 -109h4q32 64 94.5 104t144.5 40q47 0 90.5 -16t81.5 -49t61 -93t23 -139q0 -34 -2 -52l-57 -657l-121 12l37 617q1 17 1 33q0 88 -32 151q-38 74 -129 74q-82 0 -132 -77t-50 -187 l16 -629z" />
<glyph unicode="o" horiz-adv-x="827" d="M59 487v19q0 126 30 224t81 157t114 89t134 30q153 0 250.5 -137t97.5 -384q0 -242 -99.5 -371.5t-258.5 -129.5q-341 0 -349 503zM211 535q-1 -209 67 -329q66 -117 157 -116h5q49 1 84 29t54 76t27.5 103.5t8.5 121.5q0 55 -6 113t-22 125t-41 118.5t-67 86t-95 34.5 q-38 -1 -67.5 -17.5t-47.5 -47t-30 -64t-17.5 -78t-7.5 -79t-2 -76.5z" />
<glyph unicode="p" horiz-adv-x="860" d="M86 977l104 29l48 -170l6 -9q33 89 89 133t126 46h8q141 0 228 -141.5t87 -401.5q0 -479 -313 -479q-68 0 -118.5 37t-82.5 94l-10 -2l57 -508l-178 -25l-31 1088q-3 109 -20 309zM252 385q0 -43 8 -100q8 -51 27 -87.5t38.5 -54t46 -27.5t39 -11t27.5 -1q51 0 90 35.5 t60.5 87t35.5 117.5t18.5 116.5t4.5 94.5q0 146 -46.5 238t-141.5 92q-59 0 -109.5 -56t-68.5 -131q-5 -22 -16 -90t-11 -86z" />
<glyph unicode="q" horiz-adv-x="856" d="M39 516q0 228 97.5 359t228.5 131q63 0 119.5 -34t95.5 -106h4l-27 183l188 -60v-301l-10 -1046l-106 -35l-21 508h-6q-25 -61 -87 -105.5t-140 -44.5q-75 0 -134.5 33.5t-96.5 87.5t-61.5 127.5t-34 148t-9.5 154.5zM193 541q0 -54 6.5 -109t23.5 -113t42.5 -102.5 t67 -73t93.5 -28.5q28 0 57.5 14.5t56.5 43t42 80.5q13 41 13 92q0 12 -1 26l-12 243q-5 115 -59 193t-134 78q-96 0 -146 -96t-50 -248z" />
<glyph unicode="r" horiz-adv-x="518" d="M106 979l97 22l41 -180l6 2q4 16 10 33.5t25.5 55t43.5 65.5t65.5 50t90.5 22l33 -179q-5 1 -29 0l-24 -2q-89 -5 -153 -95q-56 -78 -55 -202q0 -19 1 -39l25 -520l-164 -28l10 737v15q0 95 -23 243z" />
<glyph unicode="s" horiz-adv-x="616" d="M59 741q0 117 76.5 190t190.5 73q124 0 204 -68l-53 -53q-58 37 -131 37q-61 0 -97 -49t-36 -105q0 -60 29 -98t100 -86q104 -70 159.5 -141t55.5 -171q0 -128 -89.5 -206t-199.5 -78q-130 0 -194 41l35 131q26 -26 72 -47t95 -21q74 0 114 41t40 113q0 117 -145 198 q-61 35 -94.5 58t-68 58.5t-49 79.5t-14.5 103z" />
<glyph unicode="t" horiz-adv-x="530" d="M8 956l127 21l-8 182l113 82l20 -268l156 39l37 -133l-201 6l47 -617q5 -78 41 -113.5t78 -35.5q39 0 82 16l-21 -135q-50 -20 -106 -20q-58 0 -101 21t-66.5 51t-37.5 74.5t-18 80t-5 78.5l-6 602l-112 -10z" />
<glyph unicode="u" horiz-adv-x="849" d="M70 950l149 27l33 -598q9 -157 41.5 -218t114.5 -61q37 0 68 22t50 58t30.5 67t18.5 64q5 22 9 90l20 562l96 34l35 -735l17 -264l-127 -16l-17 182l-8 -4q-13 -66 -76 -120t-141 -54q-127 0 -192 87t-80 294z" />
<glyph unicode="v" horiz-adv-x="741" d="M18 1006l175 -31l135 -559q7 -32 17.5 -67.5t24.5 -78.5t19 -59h6q7 37 51 199l152 542l104 27l-217 -979l-137 12z" />
<glyph unicode="w" horiz-adv-x="1202" d="M66 1008l174 -37l47 -469q10 -110 43 -318l8 -2q21 109 84 312l153 495l132 -14l67 -473l47 -312h6q11 49 84 302l144 501l102 -16l-237 -993l-136 10l-131 506q-25 94 -59 262l-14 8q-26 -104 -66 -272l-117 -490l-141 -24z" />
<glyph unicode="x" horiz-adv-x="718" d="M35 938l176 41l154 -379l16 -10l188 387l138 -49l-242 -404l184 -540l-110 16l-174 385h-5l-206 -375l-97 -10l238 537z" />
<glyph unicode="y" horiz-adv-x="735" d="M25 1030l186 -33l137 -784h4l238 776l90 -39l-129 -590q-46 -215 -106.5 -369t-157.5 -276q-63 -78 -191 -133l-47 62q63 34 113.5 102t76.5 138t39 120.5t13 69.5q0 25 -6 39z" />
<glyph unicode="z" horiz-adv-x="667" d="M25 8l30 88l398 742v12l-340 41l-15 98l551 -24l19 -68l-498 -772v-14l485 18l-55 -139z" />
<glyph unicode="{" horiz-adv-x="526" d="M53 610q42 0 74 17t49 44.5t25 56.5t8 58q0 95 -23 177q-14 107 -14 182q0 260 281 260l-37 -98q-21 0 -35.5 -1t-40 -8.5t-41.5 -21.5t-28.5 -42.5t-12.5 -68.5q0 -59 27 -180q30 -131 30 -205q0 -98 -31.5 -145.5t-95.5 -63.5v-6q81 -22 116.5 -84t35.5 -192 q0 -16 -4 -112.5t-4 -115.5q0 -92 29.5 -139t109.5 -57l-33 -94q-113 0 -184.5 62t-71.5 198q0 25 13.5 178t13.5 182q0 32 -3 53.5t-14.5 47t-38.5 38.5t-69 13z" />
<glyph unicode="|" horiz-adv-x="417" d="M158 -512l8 2030l102 18l29 -2036z" />
<glyph unicode="}" horiz-adv-x="526" d="M4 -127q28 0 42.5 0.5t38.5 4t36.5 10.5t29 21t24.5 35t14 52t6 72q0 14 -5 122q-10 118 -10 142q0 70 15 120.5t42 77t49.5 38.5t51.5 20v4q-63 16 -96 61.5t-33 137.5q0 28 22.5 199.5t22.5 203.5q0 40 -12 68.5t-27 42t-41 21t-41.5 8.5t-42.5 1l23 82h28t33.5 -2.5 t39 -6t39 -12t39 -20t33.5 -29.5t29 -41t18 -55.5t7 -70.5q0 -40 -12 -150l-25 -217q-7 -63 24 -107t113 -44l-41 -101q-30 -2 -53.5 -10t-38.5 -19t-26 -28t-16 -30.5t-7.5 -33.5t-3 -30.5t-0.5 -26.5q0 -25 10 -158q16 -94 16 -188q0 -137 -72.5 -206t-183.5 -69h-24z" />
<glyph unicode="~" horiz-adv-x="1220" d="M141 461q-6 127 45 202.5t136 75.5q41 0 94.5 -15.5t88 -30t103.5 -46.5q74 -32 105 -45.5t80 -29t77 -15.5q41 0 63.5 45.5t20.5 114.5l138 26q0 -134 -53.5 -202t-151.5 -68q-101 0 -309 62q-194 59 -244 59q-54 0 -88.5 -42t-34.5 -120z" />
<glyph unicode="&#xa1;" horiz-adv-x="415" d="M113 905q0 44 26.5 76.5t75.5 32.5h8q39 0 61.5 -29.5t22.5 -75.5q0 -45 -28.5 -75.5t-73.5 -30.5q-35 0 -63.5 31t-28.5 71zM147 614l89 27l81 -999l-167 -37z" />
<glyph unicode="&#xa2;" d="M131 668q0 182 85.5 313t223.5 160l-49 176l131 20l8 -182q98 7 156 -29l-59 -143q-56 53 -138 53q-45 0 -81 -16.5t-59 -45.5t-39 -63.5t-24.5 -75t-12 -75t-3.5 -68.5q0 -102 25 -188t83 -145.5t140 -59.5q103 0 170 41v-76q-69 -61 -158 -67l25 -228l-129 13l18 202 q-160 27 -236.5 140t-76.5 344z" />
<glyph unicode="&#xa3;" d="M37 90q79 35 158 145.5t79 221.5q0 93 -12 172l-205 -13l29 134l160 -17q-29 133 -29 240q0 171 97.5 279t238.5 108q105 0 152 -33l-68 -141q-17 20 -52.5 36.5t-76.5 16.5q-88 0 -132 -62t-44 -157q0 -86 41 -281l248 -8l-13 -84l-213 -12q17 -87 17 -158 q0 -192 -133 -377l2 -16l495 66l-49 -160l-633 10z" />
<glyph unicode="&#xa4;" d="M6 1065l78 80l127 -150q36 39 91 62.5t108 23.5q59 0 111.5 -23.5t86.5 -60.5l129 148l76 -80l-147 -145q53 -100 53 -242q0 -144 -53 -244l147 -149l-78 -80l-127 149q-37 -40 -92 -63t-108 -23q-54 0 -109 22.5t-88 61.5l-127 -147l-76 80l144 145q-56 103 -56 242 q0 138 58 248zM223 672q0 -133 54 -214t133 -81q84 -2 135 79t51 218q0 131 -49 215t-135 84q-91 0 -140 -83.5t-49 -217.5z" />
<glyph unicode="&#xa5;" d="M51 360l25 129l268 -16l2 139l-295 11l17 65l217 12l-201 641l94 -10l244 -614h4l219 614l148 -37l-291 -575l221 24l20 -127l-307 -2l6 -137l287 -20l-8 -62l-272 -4l24 -375l-154 -32l27 415z" />
<glyph unicode="&#xa6;" horiz-adv-x="417" d="M127 358l135 -24l-10 -676l-86 -18zM133 1360l160 37l-29 -727l-84 -6z" />
<glyph unicode="&#xa7;" horiz-adv-x="849" d="M68 717q0 109 120 213q-38 28 -69 81t-31 124q0 65 30 117.5t78 83.5t102 47t108 16q106 0 202 -66l23 -94q-77 55 -199 55q-77 0 -132.5 -37t-55.5 -110q0 -36 13.5 -66.5t31.5 -50t53 -40t60 -31.5t71 -29q174 -71 249 -149.5t75 -209.5q0 -134 -99 -215 q32 -30 47 -82.5t15 -97.5q0 -65 -34.5 -123t-88.5 -96.5t-119.5 -61t-128.5 -22.5q-78 0 -151 20.5t-115 53.5l80 135q94 -72 215 -72q34 0 72.5 7.5t80 24t68.5 49.5t27 77q0 35 -14 65t-35.5 52t-58 43t-71.5 35.5t-84 31.5q-47 17 -73.5 27t-67.5 28.5t-64 34 t-51.5 40.5t-43 51.5t-25 62.5t-10.5 78zM176 754q0 -37 4 -41q6 -55 55 -95t146 -73q149 -47 229 -96q62 53 62 143q0 45 -15 82t-34 58.5t-48.5 40t-45 24.5t-37.5 14q-4 1 -105.5 30t-144.5 52q-66 -53 -66 -139z" />
<glyph unicode="&#xa8;" horiz-adv-x="614" d="M57 1227q0 33 29 62.5t66 29.5q36 0 61 -25.5t25 -64.5q0 -35 -23 -63.5t-68 -28.5q-39 0 -64.5 26.5t-25.5 63.5zM385 1229q0 33 24 58.5t58 25.5q30 0 54 -22.5t24 -67.5q0 -70 -70 -78q-41 0 -65.5 27t-24.5 57z" />
<glyph unicode="&#xa9;" horiz-adv-x="1386" d="M68 662q0 134 53 257.5t141.5 212.5t211 142t255.5 53q168 0 304 -80.5t211 -216.5t75 -299q0 -180 -87 -334t-238 -245t-330 -91q-166 0 -303 79.5t-215 217.5t-78 304zM168 698q0 -161 73 -289t196 -197t270 -69t266 73t184.5 197.5t65.5 274.5q0 125 -45.5 233 t-122.5 181t-180.5 111.5t-215.5 31.5q-51 0 -106.5 -16t-110.5 -46t-104 -77.5t-87 -106t-60.5 -137t-22.5 -164.5zM356 680q0 170 115.5 279.5t276.5 109.5q80 0 140.5 -12.5t82.5 -28.5l-58 -102q-54 65 -186 65q-133 0 -202.5 -72t-69.5 -190q0 -138 84 -232t231 -94 q122 0 203 52l26 -43q-60 -42 -134 -72.5t-136 -30.5q-185 0 -279 88.5t-94 282.5z" />
<glyph unicode="&#xaa;" horiz-adv-x="573" d="M57 719q0 116 95.5 176.5t250.5 58.5q0 23 -1 37.5t-8 39.5t-20.5 40t-41 27t-66.5 12q-70 0 -137 -57l-41 94q73 57 176 57q105 0 156.5 -63t60.5 -185l21 -264q6 -70 18 -139l-104 -12l-19 75h-4q-47 -86 -155 -86q-77 0 -129 52.5t-52 136.5zM156 702q0 -46 28.5 -76 t77.5 -30q53 0 90 38.5t37 65.5l10 142q-243 14 -243 -140z" />
<glyph unicode="&#xab;" horiz-adv-x="735" d="M39 508l235 366l97 13l-172 -381l225 -350l-164 26zM346 516l201 381l141 -23l-225 -329l246 -346l-142 -39z" />
<glyph unicode="&#xac;" horiz-adv-x="1220" d="M70 770l1058 53l11 -573l-68 18l-51 408l-938 26z" />
<glyph unicode="&#xad;" horiz-adv-x="585" d="M61 479l15 78l438 47l31 -117z" />
<glyph unicode="&#xae;" horiz-adv-x="1044" d="M63 936q0 192 134.5 326.5t326.5 134.5q188 0 314.5 -125.5t126.5 -306.5l2 -64q0 -181 -122 -303.5t-304 -122.5q-203 0 -340.5 134t-137.5 327zM150 926q0 -104 41 -190t123.5 -139.5t191.5 -53.5q117 0 208.5 58.5t138 149.5t46.5 195q0 102 -41 188t-123 140.5 t-190 54.5q-29 0 -45 -2q-38 0 -83.5 -16t-93 -50t-86 -80t-63 -113t-24.5 -142zM358 670l27 520q58 18 117 18q29 0 58 -5.5t64.5 -20t58 -48.5t22.5 -83q0 -85 -111 -119v-10q35 -6 62 -39t36 -86q12 -75 47 -115l-94 -12q-27 72 -37 131q-3 15 -6 27t-10.5 21t-12 15 t-18 11t-19.5 7.5t-27 5.5t-29.5 3.5t-36.5 3.5l-33 -215zM442 1126l11 -184l51 4.5t41.5 5.5t37 10t25.5 15.5t18 24t5 34.5q0 40 -31 67t-98 27q-32 0 -60 -4z" />
<glyph unicode="&#xaf;" horiz-adv-x="614" d="M100 1163l35 107l365 -17l12 -75z" />
<glyph unicode="&#xb0;" horiz-adv-x="581" d="M59 1139q0 108 73 186t181 78t180 -79t72 -189q0 -112 -75 -187.5t-177 -75.5q-109 0 -181.5 77.5t-72.5 189.5zM145 1126q0 -68 42 -113.5t106 -45.5q74 0 125 60t51 140q0 71 -38.5 118.5t-106.5 47.5q-74 0 -126.5 -62t-52.5 -145z" />
<glyph unicode="&#xb1;" horiz-adv-x="1220" d="M66 119l1062 -49l11 -86l-1055 16zM82 653l12 68l465 39l23 387l84 16l12 -409l446 -31l15 -70l-486 -18l2 -408l-67 -12l-41 401z" />
<glyph unicode="&#xb2;" horiz-adv-x="583" d="M45 575l23 37l69 56q119 93 194 203t75 194q0 91 -59 139.5t-150 48.5q-30 0 -66 -17.5t-61 -39.5l4 61q33 39 99 65t134 26q98 0 153.5 -58t55.5 -162q0 -180 -221 -407l-76 -78v-4l318 16l-31 -116z" />
<glyph unicode="&#xb3;" horiz-adv-x="579" d="M61 584l43 49q68 -27 123 -27q76 0 124 40t48 108q0 12 -1.5 25.5t-11 38.5t-26 43.5t-50.5 33t-81 14.5q-28 0 -75 -6l30 109q86 0 138.5 39.5t52.5 97.5q0 50 -30.5 78t-84.5 28q-74 0 -135 -45l-55 93q77 57 186 57q99 0 153 -53t54 -133q0 -59 -35 -107t-98 -74 l-2 -6q73 -3 130.5 -67t57.5 -146q0 -105 -75 -174.5t-203 -69.5q-91 0 -177 54z" />
<glyph unicode="&#xb4;" horiz-adv-x="614" d="M254 1094l129 303l168 -33l-227 -260z" />
<glyph unicode="&#xb5;" horiz-adv-x="849" d="M104 961l175 34l-31 -598q0 -7 -1 -22.5t-1 -22.5q0 -113 40 -181.5t128 -68.5q53 0 94 34.5t59.5 77t20.5 81.5l22 688l95 -12l38 -725q4 -65 13.5 -162t9.5 -102l-109 -15l-53 146h-4q-26 -50 -77.5 -88.5t-127.5 -38.5q-108 0 -155 80h-7l58 -412l-156 -37z" />
<glyph unicode="&#xb6;" horiz-adv-x="847" d="M63 950q0 80 29.5 155.5t86 137.5t149 99.5t207.5 37.5q95 0 184 -12l-39 -1458l-78 -14l19 1351l-138 21l11 -1370l-66 8l-68 653q-117 0 -207 112.5t-90 278.5z" />
<glyph unicode="&#xb7;" horiz-adv-x="387" d="M96 549q0 48 25 80.5t65 32.5q44 0 73.5 -31t29.5 -80q0 -46 -26.5 -78.5t-67.5 -32.5q-37 0 -68 33.5t-31 75.5z" />
<glyph unicode="&#xb8;" horiz-adv-x="614" d="M109 -373l81 90q55 -39 101 -39q32 0 54 18t22 48q0 34 -34.5 59t-119.5 25l66 180h110l-94 -133q63 -7 115.5 -39.5t52.5 -85.5q0 -41 -21.5 -73t-54.5 -50.5t-68 -27.5t-67 -9q-78 0 -143 37z" />
<glyph unicode="&#xb9;" horiz-adv-x="573" d="M94 1188l197 180l94 -33l-6 -794l-141 18l77 711h-4l-186 -119z" />
<glyph unicode="&#xba;" horiz-adv-x="632" d="M63 852q0 171 79.5 263t191.5 89q231 0 231 -309q0 -90 -19 -159t-46.5 -107t-64 -61.5t-66 -30.5t-58.5 -7q-109 0 -178.5 84.5t-69.5 237.5zM176 897q0 -121 46 -203t112 -82q63 0 97 62t34 166q0 68 -16 130t-54 106.5t-90 41.5q-67 0 -98 -63t-31 -158z" />
<glyph unicode="&#xbb;" horiz-adv-x="735" d="M49 874l74 11l297 -367l-250 -358l-90 -21l172 369zM342 160l209 370l-201 320l129 78l193 -393l-244 -373z" />
<glyph unicode="&#xbc;" horiz-adv-x="1286" d="M41 1239l221 100l88 23l-4 -832l-74 19l-49 682h-4l-127 -80zM215 33l733 1304l80 11l-711 -1389zM694 221v66l314 520l133 18l-19 -501l107 16l-6 -119l-95 6l-12 -213l-67 -30l-15 231zM831 293l199 24l-20 226q-8 79 -4 145h-5q-12 -26 -30 -71.5t-31 -73.5l-109 -246 v-4z" />
<glyph unicode="&#xbd;" horiz-adv-x="1286" d="M31 1180l198 159l56 -4l65 -762l-137 -32v669h-4l-150 -59zM178 -16l709 1364l110 -56l-743 -1276zM727 61l90 82q110 100 183 208t73 200q0 71 -36.5 115.5t-94.5 44.5q-78 0 -145 -58l-54 56q94 100 234 100q16 0 27 -0.5t35 -5t40.5 -12t38 -24.5t34.5 -40t22.5 -60 t9.5 -83q0 -165 -183 -410l-63 -84v-4l301 33l-31 -119l-463 25z" />
<glyph unicode="&#xbe;" horiz-adv-x="1286" d="M74 1305q73 57 184 57q102 0 158.5 -55.5t56.5 -141.5q0 -56 -32.5 -100.5t-90.5 -69.5v-4q64 -14 117 -78.5t53 -158.5q0 -98 -60 -161t-169 -63q-110 0 -205 74l14 74q49 -29 146 -29q67 0 107 36.5t40 98.5q0 33 -7.5 59t-18.5 42.5t-30.5 28.5t-35 17.5t-41.5 8.5 t-40 3.5t-40 0.5l8 64q85 0 135 37.5t50 93.5q0 45 -30.5 78.5t-90.5 33.5q-72 0 -133 -45zM266 -16l709 1364l76 22l-664 -1413zM684 303l369 516l98 -12l-37 -498l92 -20l15 -68l-113 -16l2 -205h-109l25 197l-307 30zM827 303l201 10l-2 226q0 77 8 147h-4l-69 -143 l-134 -236v-4z" />
<glyph unicode="&#xbf;" horiz-adv-x="657" d="M61 -123q1 43 11.5 83.5t33 83t38.5 69t50 75t46 66.5q49 77 71.5 143t22.5 146q0 7 -2 43.5t-2 44.5l69 -8q21 -75 21 -144q0 -139 -76 -282q-43 -82 -57.5 -112t-31.5 -84t-17 -101q0 -97 43.5 -142t113.5 -45q95 0 168 54l-24 -93q-103 -75 -201 -75q-138 0 -207.5 75 t-69.5 189v14zM276 911q0 58 29.5 80.5t69.5 22.5q38 0 67 -32t29 -83q0 -29 -9 -50t-20.5 -30.5t-26.5 -15t-21.5 -6t-12.5 -0.5q-32 0 -68.5 30t-36.5 84z" />
<glyph unicode="&#xc0;" horiz-adv-x="942" d="M51 0l359 1397l131 -37l350 -1360l-199 -16l-49 450l-324 17l-157 -435zM270 1737l144 43l166 -301l-62 12zM340 526l278 23l-81 379q-44 216 -58 303l-14 -8z" />
<glyph unicode="&#xc1;" horiz-adv-x="942" d="M51 0l359 1397l131 -37l350 -1360l-199 -16l-49 450l-324 17l-157 -435zM340 526l278 23l-81 379q-44 216 -58 303l-14 -8zM381 1495l203 260l153 -76l-286 -192z" />
<glyph unicode="&#xc2;" horiz-adv-x="942" d="M51 0l359 1397l131 -37l350 -1360l-199 -16l-49 450l-324 17l-157 -435zM193 1462l237 236l76 14l246 -242l-72 -14l-231 162h-5l-135 -137zM340 526l278 23l-81 379q-44 216 -58 303l-14 -8z" />
<glyph unicode="&#xc3;" horiz-adv-x="942" d="M51 0l359 1397l131 -37l350 -1360l-199 -16l-49 450l-324 17l-157 -435zM223 1522q2 78 41 131t107 53q24 0 47 -7.5t35 -13.5t49 -28q54 -33 73.5 -42t42.5 -9q28 0 44 18t20 62l55 32q5 -190 -149 -190q-47 0 -119 37q-66 34 -98 34q-28 -1 -41.5 -24.5t-16.5 -69.5z M340 526l278 23l-81 379q-44 216 -58 303l-14 -8z" />
<glyph unicode="&#xc4;" horiz-adv-x="942" d="M51 0l359 1397l131 -37l350 -1360l-199 -16l-49 450l-324 17l-157 -435zM190 1579q0 55 29.5 82t65.5 27q41 0 69.5 -30.5t28.5 -70.5q0 -37 -29.5 -69.5t-79.5 -32.5q-84 11 -84 94zM340 526l278 23l-81 379q-44 216 -58 303l-14 -8zM551 1587q0 47 30 78t72 31 q46 0 80.5 -36t34.5 -77q0 -45 -31 -76.5t-78 -31.5q-55 0 -81.5 35t-26.5 77z" />
<glyph unicode="&#xc5;" horiz-adv-x="942" d="M51 0l359 1397l131 -37l350 -1360l-199 -16l-49 450l-324 17l-157 -435zM279 1616q0 73 60 123.5t146 50.5q25 0 37 -2q17 0 44 -8.5t60 -26t56 -52.5t23 -81q0 -75 -63 -124.5t-146 -49.5q-84 0 -150.5 46.5t-66.5 123.5zM340 526l278 23l-81 379q-44 216 -58 303 l-14 -8zM375 1618q0 -42 31 -75.5t83 -33.5q55 0 83 27.5t28 75.5q0 54 -34 85.5t-87 28.5q-8 0 -16 -0.5t-25.5 -6.5t-30 -16t-22.5 -32t-10 -53z" />
<glyph unicode="&#xc6;" horiz-adv-x="1202" d="M53 0l381 1380l639 -18l-10 -152l-379 64l35 -496l356 -28l31 -93l-375 -16l55 -524l385 30l29 -147l-512 20l-82 461l-291 -14l-92 -442zM334 567l254 35l-56 420q-2 17 -15.5 115t-20.5 145h-13z" />
<glyph unicode="&#xc7;" horiz-adv-x="827" d="M66 612q0 51 2 78q7 130 30.5 238.5t65.5 198t101 151t140.5 95.5t180.5 34q159 0 229 -49l-59 -154q-76 37 -164 37q-162 0 -268.5 -161t-106.5 -421q0 -266 102 -424.5t291 -158.5q51 0 119 20l33 -63q-95 -44 -207 -47l-84 -111q69 -7 126.5 -39.5t57.5 -85.5 t-40.5 -91.5t-91 -53.5t-99.5 -15q-90 0 -158 37l90 90q55 -39 111 -39q35 0 58.5 18t23.5 48q0 34 -37.5 59t-130.5 25l65 166q-81 16 -146.5 57t-119.5 112.5t-84 185.5t-30 263z" />
<glyph unicode="&#xc8;" horiz-adv-x="757" d="M141 -16l21 1386l502 33l32 -156l-411 25l32 -469l328 -10l29 -86l-352 -50l-58 -507l441 -23l14 -86zM158 1737l143 43l166 -301l-61 12z" />
<glyph unicode="&#xc9;" horiz-adv-x="757" d="M141 -16l21 1386l502 33l32 -156l-411 25l32 -469l328 -10l29 -86l-352 -50l-58 -507l441 -23l14 -86zM330 1495l202 260l154 -76l-287 -192z" />
<glyph unicode="&#xca;" horiz-adv-x="757" d="M125 1483l237 235l76 15l246 -242l-72 -14l-231 161h-4l-135 -137zM141 -16l21 1386l502 33l32 -156l-411 25l32 -469l328 -10l29 -86l-352 -50l-58 -507l441 -23l14 -86z" />
<glyph unicode="&#xcb;" horiz-adv-x="757" d="M135 1579q0 55 29 82t65 27q42 0 70.5 -30.5t28.5 -70.5q0 -37 -29.5 -69.5t-79.5 -32.5q-84 11 -84 94zM141 -16l21 1386l502 33l32 -156l-411 25l32 -469l328 -10l29 -86l-352 -50l-58 -507l441 -23l14 -86zM496 1587q0 47 30 78t72 31q46 0 80.5 -36t34.5 -77 q0 -45 -31 -76.5t-78 -31.5q-55 0 -81.5 35t-26.5 77z" />
<glyph unicode="&#xcc;" horiz-adv-x="405" d="M-39 1737l143 43l166 -301l-61 12zM123 -16l14 1413l109 -39l39 -1354z" />
<glyph unicode="&#xcd;" horiz-adv-x="405" d="M102 1495l203 260l154 -76l-287 -192zM123 -16l14 1413l109 -39l39 -1354z" />
<glyph unicode="&#xce;" horiz-adv-x="405" d="M-76 1483l238 235l76 15l245 -242l-71 -14l-232 161h-4l-135 -137zM123 -16l14 1413l109 -39l39 -1354z" />
<glyph unicode="&#xcf;" horiz-adv-x="405" d="M-78 1579q0 55 29 82t65 27q42 0 70.5 -30.5t28.5 -70.5q0 -37 -29.5 -69.5t-79.5 -32.5q-84 11 -84 94zM123 -16l14 1413l109 -39l39 -1354zM283 1587q0 47 30 78t72 31q46 0 80.5 -36t34.5 -77q0 -45 -31 -76.5t-78 -31.5q-55 0 -81.5 35t-26.5 77z" />
<glyph unicode="&#xd0;" horiz-adv-x="989" d="M-20 614l20 134l154 4l-7 610q102 27 230 27q232 0 354 -113q189 -163 189 -555q0 -733 -580 -733q-114 0 -193 12l7 641zM248 111q36 -5 84 -5q86 0 157 30.5t132.5 98.5t101 190.5t51.5 293.5q4 66 4 92q0 461 -348 461q-55 0 -100 -10l-35 -506l246 16l-25 -84 l-221 -22z" />
<glyph unicode="&#xd1;" horiz-adv-x="1001" d="M92 1350l217 8l439 -1168h4l-13 1219l152 -29l-49 -1357l-105 -23l-487 1167h-4q-4 -365 12 -643l29 -524l-115 -41zM260 1522q2 78 41 131t107 53q24 0 47 -7.5t35 -13.5t49 -28q54 -33 73.5 -42t42.5 -9q28 0 44 18t20 62l55 32q5 -190 -149 -190q-47 0 -119 37 q-66 34 -98 34q-28 -1 -41.5 -24.5t-16.5 -69.5z" />
<glyph unicode="&#xd2;" horiz-adv-x="983" d="M70 657q0 190 36 335.5t98.5 232t141.5 129.5t172 43q200 0 298.5 -162t98.5 -504q0 -148 -19 -268t-53.5 -199t-77 -136t-94 -87.5t-99.5 -43.5t-99 -13q-96 0 -168.5 36.5t-126 115t-81 209.5t-27.5 312zM213 760q0 -185 31.5 -329.5t100.5 -234.5t167 -90q58 0 103 32 t73.5 83.5t46.5 122.5t25.5 143t7.5 152q0 89 -9 174.5t-31.5 170t-55.5 148t-85 103t-116 39.5q-61 0 -107 -30t-74 -78t-46 -117t-24.5 -138.5t-6.5 -150.5zM270 1737l144 43l166 -301l-62 12z" />
<glyph unicode="&#xd3;" horiz-adv-x="983" d="M70 657q0 190 36 335.5t98.5 232t141.5 129.5t172 43q200 0 298.5 -162t98.5 -504q0 -148 -19 -268t-53.5 -199t-77 -136t-94 -87.5t-99.5 -43.5t-99 -13q-96 0 -168.5 36.5t-126 115t-81 209.5t-27.5 312zM213 760q0 -185 31.5 -329.5t100.5 -234.5t167 -90q58 0 103 32 t73.5 83.5t46.5 122.5t25.5 143t7.5 152q0 89 -9 174.5t-31.5 170t-55.5 148t-85 103t-116 39.5q-61 0 -107 -30t-74 -78t-46 -117t-24.5 -138.5t-6.5 -150.5zM432 1495l203 260l153 -76l-286 -192z" />
<glyph unicode="&#xd4;" horiz-adv-x="983" d="M70 657q0 190 36 335.5t98.5 232t141.5 129.5t172 43q200 0 298.5 -162t98.5 -504q0 -148 -19 -268t-53.5 -199t-77 -136t-94 -87.5t-99.5 -43.5t-99 -13q-96 0 -168.5 36.5t-126 115t-81 209.5t-27.5 312zM213 760q0 -185 31.5 -329.5t100.5 -234.5t167 -90q58 0 103 32 t73.5 83.5t46.5 122.5t25.5 143t7.5 152q0 89 -9 174.5t-31.5 170t-55.5 148t-85 103t-116 39.5q-61 0 -107 -30t-74 -78t-46 -117t-24.5 -138.5t-6.5 -150.5zM213 1483l238 235l75 15l246 -242l-72 -14l-231 161h-4l-135 -137z" />
<glyph unicode="&#xd5;" horiz-adv-x="983" d="M70 657q0 190 36 335.5t98.5 232t141.5 129.5t172 43q200 0 298.5 -162t98.5 -504q0 -148 -19 -268t-53.5 -199t-77 -136t-94 -87.5t-99.5 -43.5t-99 -13q-96 0 -168.5 36.5t-126 115t-81 209.5t-27.5 312zM213 760q0 -185 31.5 -329.5t100.5 -234.5t167 -90q58 0 103 32 t73.5 83.5t46.5 122.5t25.5 143t7.5 152q0 89 -9 174.5t-31.5 170t-55.5 148t-85 103t-116 39.5q-61 0 -107 -30t-74 -78t-46 -117t-24.5 -138.5t-6.5 -150.5zM244 1522q2 78 41 131t106 53q24 0 47 -7.5t35 -13.5t49 -28q54 -33 74 -42t43 -9q28 0 43.5 18t19.5 62l56 32 q5 -190 -150 -190q-47 0 -119 37q-66 34 -98 34q-28 -1 -41 -24t-16 -70z" />
<glyph unicode="&#xd6;" horiz-adv-x="983" d="M70 657q0 190 36 335.5t98.5 232t141.5 129.5t172 43q200 0 298.5 -162t98.5 -504q0 -148 -19 -268t-53.5 -199t-77 -136t-94 -87.5t-99.5 -43.5t-99 -13q-96 0 -168.5 36.5t-126 115t-81 209.5t-27.5 312zM211 1579q0 55 29 82t65 27q41 0 69.5 -30.5t28.5 -70.5 q0 -37 -29 -69.5t-79 -32.5q-84 11 -84 94zM213 760q0 -185 31.5 -329.5t100.5 -234.5t167 -90q58 0 103 32t73.5 83.5t46.5 122.5t25.5 143t7.5 152q0 89 -9 174.5t-31.5 170t-55.5 148t-85 103t-116 39.5q-61 0 -107 -30t-74 -78t-46 -117t-24.5 -138.5t-6.5 -150.5z M571 1587q0 46 30.5 77.5t72.5 31.5q46 0 80 -36t34 -77q0 -45 -30.5 -76.5t-77.5 -31.5q-55 0 -82 35t-27 77z" />
<glyph unicode="&#xd7;" horiz-adv-x="1220" d="M51 16l479 521l-456 413l80 129l456 -465l455 430l74 -40l-437 -484l478 -508l-76 -28l-488 471l-475 -459z" />
<glyph unicode="&#xd8;" horiz-adv-x="983" d="M70 657q0 190 35.5 335t98 232t142 130t172.5 43q142 0 230 -76l63 156l47 -62l-55 -160q112 -149 112 -524q0 -148 -19 -268t-53.5 -199t-77 -136t-94 -87.5t-99.5 -43.5t-99 -13q-132 0 -223 71l-57 -141l-117 109l74 165q-80 178 -80 469zM213 760q0 -222 41 -359 l412 744q-78 129 -195 129q-61 0 -107 -30t-74 -78t-46 -117t-24.5 -138.5t-6.5 -150.5zM324 225q71 -119 188 -119q58 0 103 32t73.5 83.5t46.5 122.5t25.5 143t7.5 152q0 240 -57 401z" />
<glyph unicode="&#xd9;" horiz-adv-x="987" d="M109 1343l106 27l76 -901q31 -360 237 -360q211 0 211 301q0 39 -2 59l-55 885l192 53l-16 -918q-4 -247 -103.5 -376t-267.5 -129q-347 0 -358 485zM190 1737l144 43l166 -301l-62 12z" />
<glyph unicode="&#xda;" horiz-adv-x="987" d="M109 1343l106 27l76 -901q31 -360 237 -360q211 0 211 301q0 39 -2 59l-55 885l192 53l-16 -918q-4 -247 -103.5 -376t-267.5 -129q-347 0 -358 485zM362 1495l203 260l154 -76l-287 -192z" />
<glyph unicode="&#xdb;" horiz-adv-x="987" d="M109 1343l106 27l76 -901q31 -360 237 -360q211 0 211 301q0 39 -2 59l-55 885l192 53l-16 -918q-4 -247 -103.5 -376t-267.5 -129q-347 0 -358 485zM195 1462l237 236l76 14l246 -242l-72 -14l-231 162h-5l-135 -137z" />
<glyph unicode="&#xdc;" horiz-adv-x="987" d="M109 1343l106 27l76 -901q31 -360 237 -360q211 0 211 301q0 39 -2 59l-55 885l192 53l-16 -918q-4 -247 -103.5 -376t-267.5 -129q-347 0 -358 485zM193 1579q0 55 29 82t65 27q41 0 69.5 -30.5t28.5 -70.5q0 -37 -29.5 -69.5t-79.5 -32.5q-83 11 -83 94zM553 1587 q0 47 30 78t72 31q46 0 80.5 -36t34.5 -77q0 -45 -30.5 -76.5t-77.5 -31.5q-55 0 -82 35t-27 77z" />
<glyph unicode="&#xdd;" horiz-adv-x="851" d="M49 1409l107 -29l311 -639h4l176 609l211 30l-362 -782l-45 -598l-119 16l12 576zM342 1495l203 260l153 -76l-286 -192z" />
<glyph unicode="&#xde;" horiz-adv-x="837" d="M100 -16l68 1396l96 17l15 -297q77 10 137 10q99 0 171.5 -28.5t113 -77.5t59 -107t18.5 -125q0 -203 -121 -320.5t-313 -117.5q-36 0 -90 8l2 -328zM262 967l8 -525q37 -6 88 -6q130 3 202 78.5t71 208.5q-2 118 -63 186t-191 68q-84 0 -115 -10z" />
<glyph unicode="&#xdf;" horiz-adv-x="899" d="M102 0l19 838q3 143 28 252t62.5 174t90 106t103 55.5t109.5 14.5q125 0 199.5 -76.5t74.5 -241.5q0 -99 -53 -170q-63 -26 -101 -70.5t-38 -99.5q0 -102 100 -209q40 -43 59 -67t42 -60t32 -73.5t9 -83.5q0 -143 -92.5 -224t-229.5 -81q-49 0 -112.5 14.5t-94.5 28.5 l66 127q57 -31 139 -31q89 0 137.5 63t48.5 154q0 66 -29 118t-83 111q-8 8 -38.5 41t-40.5 46.5t-28.5 40.5t-25 52t-6.5 54q0 31 7 54.5t16.5 37.5t30 27t35.5 20t45 19t48 20q33 64 33 125q0 105 -57 158t-134 53q-96 0 -145 -87t-66 -312l-67 -895z" />
<glyph unicode="&#xe0;" horiz-adv-x="765" d="M68 272q0 110 59.5 190t155.5 123t225 58q-4 60 -9 95t-16.5 70t-31.5 52.5t-52 28t-80 10.5q-96 0 -172 -45l-36 55q17 15 44.5 33.5t87 40t117.5 21.5q289 0 289 -338v-428q0 -119 17 -226l-82 -30l-39 141h-10q-22 -41 -52 -70t-60.5 -43t-57 -20t-52.5 -6 q-106 0 -175.5 79t-69.5 209zM170 1358l143 43l166 -301l-61 12zM193 260q0 -80 39.5 -120t93.5 -40q59 0 104.5 39.5t65.5 108.5q3 15 8 57l20 184q-50 5 -75 5q-124 0 -190 -55t-66 -179z" />
<glyph unicode="&#xe1;" horiz-adv-x="765" d="M68 272q0 110 59.5 190t155.5 123t225 58q-4 60 -9 95t-16.5 70t-31.5 52.5t-52 28t-80 10.5q-96 0 -172 -45l-36 55q17 15 44.5 33.5t87 40t117.5 21.5q289 0 289 -338v-428q0 -119 17 -226l-82 -30l-39 141h-10q-22 -41 -52 -70t-60.5 -43t-57 -20t-52.5 -6 q-106 0 -175.5 79t-69.5 209zM193 260q0 -80 39.5 -120t93.5 -40q59 0 104.5 39.5t65.5 108.5q3 15 8 57l20 184q-50 5 -75 5q-124 0 -190 -55t-66 -179zM340 1094l129 303l168 -33l-227 -260z" />
<glyph unicode="&#xe2;" horiz-adv-x="765" d="M68 272q0 110 59.5 190t155.5 123t225 58q-4 60 -9 95t-16.5 70t-31.5 52.5t-52 28t-80 10.5q-96 0 -172 -45l-36 55q17 15 44.5 33.5t87 40t117.5 21.5q289 0 289 -338v-428q0 -119 17 -226l-82 -30l-39 141h-10q-22 -41 -52 -70t-60.5 -43t-57 -20t-52.5 -6 q-106 0 -175.5 79t-69.5 209zM170 1104l164 276l76 15l163 -299l-71 2l-150 202h-4l-69 -178zM193 260q0 -80 39.5 -120t93.5 -40q59 0 104.5 39.5t65.5 108.5q3 15 8 57l20 184q-50 5 -75 5q-124 0 -190 -55t-66 -179z" />
<glyph unicode="&#xe3;" horiz-adv-x="765" d="M68 272q0 110 59.5 190t155.5 123t225 58q-4 60 -9 95t-16.5 70t-31.5 52.5t-52 28t-80 10.5q-96 0 -172 -45l-36 55q17 15 44.5 33.5t87 40t117.5 21.5q289 0 289 -338v-428q0 -119 17 -226l-82 -30l-39 141h-10q-22 -41 -52 -70t-60.5 -43t-57 -20t-52.5 -6 q-106 0 -175.5 79t-69.5 209zM160 1149q2 71 34.5 119.5t88.5 48.5q21 0 39.5 -6.5t29.5 -13t39 -25.5q47 -31 63 -39t35 -8q46 0 54 73l45 29q5 -172 -125 -172q-38 0 -98 33q-61 33 -82 33q-44 -3 -47 -86zM193 260q0 -80 39.5 -120t93.5 -40q59 0 104.5 39.5t65.5 108.5 q3 15 8 57l20 184q-50 5 -75 5q-124 0 -190 -55t-66 -179z" />
<glyph unicode="&#xe4;" horiz-adv-x="765" d="M68 272q0 110 59.5 190t155.5 123t225 58q-4 60 -9 95t-16.5 70t-31.5 52.5t-52 28t-80 10.5q-96 0 -172 -45l-36 55q17 15 44.5 33.5t87 40t117.5 21.5q289 0 289 -338v-428q0 -119 17 -226l-82 -30l-39 141h-10q-22 -41 -52 -70t-60.5 -43t-57 -20t-52.5 -6 q-106 0 -175.5 79t-69.5 209zM133 1227q0 33 28.5 62.5t65.5 29.5q36 0 61 -25.5t25 -64.5q0 -35 -22.5 -63.5t-67.5 -28.5q-39 0 -64.5 26.5t-25.5 63.5zM193 260q0 -80 39.5 -120t93.5 -40q59 0 104.5 39.5t65.5 108.5q3 15 8 57l20 184q-50 5 -75 5q-124 0 -190 -55 t-66 -179zM461 1229q0 33 24 58.5t58 25.5q30 0 54 -22.5t24 -67.5q0 -70 -70 -78q-41 0 -65.5 27t-24.5 57z" />
<glyph unicode="&#xe5;" horiz-adv-x="765" d="M68 272q0 110 59.5 190t155.5 123t225 58q-4 60 -9 95t-16.5 70t-31.5 52.5t-52 28t-80 10.5q-96 0 -172 -45l-36 55q17 15 44.5 33.5t87 40t117.5 21.5q289 0 289 -338v-428q0 -119 17 -226l-82 -30l-39 141h-10q-22 -41 -52 -70t-60.5 -43t-57 -20t-52.5 -6 q-106 0 -175.5 79t-69.5 209zM193 260q0 -80 39.5 -120t93.5 -40q59 0 104.5 39.5t65.5 108.5q3 15 8 57l20 184q-50 5 -75 5q-124 0 -190 -55t-66 -179zM197 1245q0 77 63 140t139 63q21 0 31 -2q11 0 29 -5t42.5 -18t45 -31.5t35 -50.5t14.5 -71q0 -79 -57 -129.5 t-131 -50.5q-81 0 -146 39t-65 116zM282 1247q7 -46 46 -69q33 -20 57 -17q104 12 104 121q0 69 -55 96q-8 5 -18.5 8.5t-31.5 5t-44 -15t-43 -51.5q-22 -32 -15 -78z" />
<glyph unicode="&#xe6;" horiz-adv-x="1198" d="M59 291q0 104 62 175.5t160.5 102.5t226.5 31l-4 70q-12 223 -174 223q-110 0 -172 -45l-15 63q107 95 232 95q83 0 153 -48t90 -139h7q40 86 101.5 136.5t137.5 50.5q71 0 125.5 -34t86.5 -92t47.5 -128t15.5 -150q0 -14 -1.5 -30.5t-4 -41.5t-3.5 -45l-499 27 q-4 -70 -4 -96q0 -180 63 -260t166 -80q110 0 195 88l55 -131q-80 -49 -229 -49q-101 0 -185 53t-112 145h-5q-33 -93 -98.5 -144.5t-159.5 -51.5q-112 0 -185 88.5t-73 216.5zM193 252q0 -76 43 -115t100 -39q62 0 109 38t67 89t16 97l-20 206q-142 3 -228.5 -72.5 t-86.5 -203.5zM637 594l364 16q0 131 -47.5 208t-115.5 77q-90 0 -146.5 -93t-54.5 -208z" />
<glyph unicode="&#xe7;" horiz-adv-x="661" d="M70 489q0 236 107.5 376.5t295.5 140.5q108 0 166 -33l-59 -144q-45 35 -127 35t-138 -53.5t-79 -135t-23 -186.5q0 -193 77 -305t199 -112q71 0 125 28l21 -69q-82 -44 -180 -47l-78 -109q63 -7 115.5 -39.5t52.5 -85.5q0 -41 -21.5 -73t-54.5 -50.5t-68 -27.5t-67 -9 q-79 0 -144 37l82 90q55 -39 101 -39q32 0 54 18t22 48q0 34 -34.5 59t-119.5 25l61 168q-133 31 -209.5 158.5t-76.5 334.5z" />
<glyph unicode="&#xe8;" horiz-adv-x="772" d="M70 475q0 149 38 267.5t116 191t184 72.5q4 0 13 -1t13 -1q279 -23 279 -420q0 -44 -6 -123l-517 43q-2 -91 12.5 -161t39 -111t61.5 -68.5t71.5 -38t76.5 -14.5q5 0 15 -1t15 -1q84 0 150 34l41 -141q-65 -35 -197 -35q-92 0 -163.5 31t-116 80.5t-73.5 117.5 t-40.5 136.5t-11.5 142.5zM213 610l350 -10q0 140 -44.5 221.5t-123.5 81.5q-57 0 -98.5 -45t-60.5 -108.5t-23 -139.5zM225 1358l144 43l166 -301l-62 12z" />
<glyph unicode="&#xe9;" horiz-adv-x="772" d="M70 475q0 149 38 267.5t116 191t184 72.5q4 0 13 -1t13 -1q279 -23 279 -420q0 -44 -6 -123l-517 43q-2 -91 12.5 -161t39 -111t61.5 -68.5t71.5 -38t76.5 -14.5q5 0 15 -1t15 -1q84 0 150 34l41 -141q-65 -35 -197 -35q-92 0 -163.5 31t-116 80.5t-73.5 117.5 t-40.5 136.5t-11.5 142.5zM213 610l350 -10q0 140 -44.5 221.5t-123.5 81.5q-57 0 -98.5 -45t-60.5 -108.5t-23 -139.5zM375 1094l129 303l168 -33l-228 -260z" />
<glyph unicode="&#xea;" horiz-adv-x="772" d="M70 475q0 149 38 267.5t116 191t184 72.5q4 0 13 -1t13 -1q279 -23 279 -420q0 -44 -6 -123l-517 43q-2 -91 12.5 -161t39 -111t61.5 -68.5t71.5 -38t76.5 -14.5q5 0 15 -1t15 -1q84 0 150 34l41 -141q-65 -35 -197 -35q-92 0 -163.5 31t-116 80.5t-73.5 117.5 t-40.5 136.5t-11.5 142.5zM213 610l350 -10q0 140 -44.5 221.5t-123.5 81.5q-57 0 -98.5 -45t-60.5 -108.5t-23 -139.5zM227 1104l164 276l76 15l164 -299l-72 2l-149 202h-4l-70 -178z" />
<glyph unicode="&#xeb;" horiz-adv-x="772" d="M70 475q0 149 38 267.5t116 191t184 72.5q4 0 13 -1t13 -1q279 -23 279 -420q0 -44 -6 -123l-517 43q-2 -91 12.5 -161t39 -111t61.5 -68.5t71.5 -38t76.5 -14.5q5 0 15 -1t15 -1q84 0 150 34l41 -141q-65 -35 -197 -35q-92 0 -163.5 31t-116 80.5t-73.5 117.5 t-40.5 136.5t-11.5 142.5zM178 1227q0 33 28.5 62.5t65.5 29.5q36 0 61 -25.5t25 -64.5q0 -35 -22.5 -63.5t-67.5 -28.5q-39 0 -64.5 26.5t-25.5 63.5zM213 610l350 -10q0 140 -44.5 221.5t-123.5 81.5q-57 0 -98.5 -45t-60.5 -108.5t-23 -139.5zM506 1229q0 33 24 58.5 t58 25.5q30 0 54 -22.5t24 -67.5q0 -70 -70 -78q-41 0 -65.5 27t-24.5 57z" />
<glyph unicode="&#xec;" horiz-adv-x="380" d="M-49 1358l143 43l166 -301l-61 12zM109 997l116 -22l60 -959l-164 -16z" />
<glyph unicode="&#xed;" horiz-adv-x="380" d="M96 1094l129 303l168 -33l-227 -260zM109 997l116 -22l60 -959l-164 -16z" />
<glyph unicode="&#xee;" horiz-adv-x="380" d="M-14 1104l164 276l75 15l164 -299l-72 2l-149 202h-4l-70 -178zM109 997l116 -22l60 -959l-164 -16z" />
<glyph unicode="&#xef;" horiz-adv-x="380" d="M-59 1227q0 33 28.5 62.5t65.5 29.5q36 0 61 -25.5t25 -64.5q0 -35 -22.5 -63.5t-67.5 -28.5q-39 0 -64.5 26.5t-25.5 63.5zM109 997l116 -22l60 -959l-164 -16zM268 1229q0 33 24 58.5t58 25.5q30 0 54 -22.5t24 -67.5q0 -70 -70 -78q-41 0 -65.5 27t-24.5 57z" />
<glyph unicode="&#xf0;" d="M80 518q0 121 28 216t74.5 150.5t101 84t111.5 28.5q67 0 119 -39l4 7q-53 100 -164 184l-176 -135l-67 82l182 108q-76 70 -176 148l100 86q120 -93 195 -166l194 119l33 -50l-168 -127q145 -150 216 -324t71 -419q0 -103 -20 -187t-53 -138.5t-77.5 -92t-91.5 -53.5 t-96 -16q-155 0 -247.5 144t-92.5 390zM215 588q0 -79 14.5 -161.5t41 -157t72 -122t101.5 -47.5l21 2q43 4 74 31.5t47.5 71t24 92t7.5 104.5q0 59 -6 109q-25 205 -74.5 293t-138.5 88q-184 0 -184 -303z" />
<glyph unicode="&#xf1;" horiz-adv-x="864" d="M115 8q3 63 10 182.5t11 190.5t9 173.5t7 171t1.5 141t-3.5 122.5l90 -18l6 -109h4q32 64 94.5 104t144.5 40q47 0 90.5 -16t81.5 -49t61 -93t23 -139q0 -34 -2 -52l-57 -657l-121 12l37 617q7 110 -31 184t-129 74q-82 0 -132 -77t-50 -187l16 -629zM250 1149 q2 71 34.5 119.5t88.5 48.5q21 0 39.5 -6.5t29.5 -13t39 -25.5q47 -31 63.5 -39t35.5 -8q45 0 53 73l45 29q5 -172 -125 -172q-38 0 -98 33t-82 33q-44 -3 -47 -86z" />
<glyph unicode="&#xf2;" horiz-adv-x="827" d="M59 487v19q0 126 30 224t81 157t114 89t134 30q153 0 250.5 -137t97.5 -384q0 -242 -99.5 -371.5t-258.5 -129.5q-341 0 -349 503zM190 1358l144 43l166 -301l-62 12zM211 535q0 -209 67.5 -328.5t161.5 -116.5q49 1 84 29t54 76t27.5 103.5t8.5 121.5q0 55 -6 113 t-22 125t-41 118.5t-67 86t-95 34.5q-38 -1 -67.5 -17.5t-47.5 -47t-30 -64t-17.5 -78t-7.5 -79t-2 -76.5z" />
<glyph unicode="&#xf3;" horiz-adv-x="827" d="M59 487v19q0 126 30 224t81 157t114 89t134 30q153 0 250.5 -137t97.5 -384q0 -242 -99.5 -371.5t-258.5 -129.5q-341 0 -349 503zM211 535q0 -209 67.5 -328.5t161.5 -116.5q49 1 84 29t54 76t27.5 103.5t8.5 121.5q0 55 -6 113t-22 125t-41 118.5t-67 86t-95 34.5 q-38 -1 -67.5 -17.5t-47.5 -47t-30 -64t-17.5 -78t-7.5 -79t-2 -76.5zM354 1094l129 303l168 -33l-227 -260z" />
<glyph unicode="&#xf4;" horiz-adv-x="827" d="M59 487v19q0 126 30 224t81 157t114 89t134 30q153 0 250.5 -137t97.5 -384q0 -242 -99.5 -371.5t-258.5 -129.5q-341 0 -349 503zM211 535q0 -209 67.5 -328.5t161.5 -116.5q49 1 84 29t54 76t27.5 103.5t8.5 121.5q0 55 -6 113t-22 125t-41 118.5t-67 86t-95 34.5 q-38 -1 -67.5 -17.5t-47.5 -47t-30 -64t-17.5 -78t-7.5 -79t-2 -76.5zM229 1104l164 276l76 15l164 -299l-72 2l-149 202h-4l-70 -178z" />
<glyph unicode="&#xf5;" horiz-adv-x="827" d="M59 487v19q0 126 30 224t81 157t114 89t134 30q153 0 250.5 -137t97.5 -384q0 -242 -99.5 -371.5t-258.5 -129.5q-341 0 -349 503zM190 1149q2 71 34.5 119.5t88.5 48.5q21 0 39.5 -6t30.5 -13.5t39 -25.5q47 -31 63 -39t35 -8q45 0 53 73l45 29q5 -172 -124 -172 q-39 0 -99 33t-82 33q-44 -3 -47 -86zM211 535q0 -209 67.5 -328.5t161.5 -116.5q49 1 84 29t54 76t27.5 103.5t8.5 121.5q0 55 -6 113t-22 125t-41 118.5t-67 86t-95 34.5q-38 -1 -67.5 -17.5t-47.5 -47t-30 -64t-17.5 -78t-7.5 -79t-2 -76.5z" />
<glyph unicode="&#xf6;" horiz-adv-x="827" d="M59 487v19q0 126 30 224t81 157t114 89t134 30q153 0 250.5 -137t97.5 -384q0 -242 -99.5 -371.5t-258.5 -129.5q-341 0 -349 503zM166 1227q0 33 28.5 62.5t65.5 29.5q36 0 61 -25.5t25 -64.5q0 -35 -22.5 -63.5t-67.5 -28.5q-39 0 -64.5 26.5t-25.5 63.5zM211 535 q0 -209 67.5 -328.5t161.5 -116.5q49 1 84 29t54 76t27.5 103.5t8.5 121.5q0 55 -6 113t-22 125t-41 118.5t-67 86t-95 34.5q-38 -1 -67.5 -17.5t-47.5 -47t-30 -64t-17.5 -78t-7.5 -79t-2 -76.5zM494 1229q0 33 23.5 58.5t57.5 25.5q30 0 54 -22.5t24 -67.5q0 -70 -69 -78 q-41 0 -65.5 27t-24.5 57z" />
<glyph unicode="&#xf7;" horiz-adv-x="1220" d="M57 485l33 125l1030 -24l17 -76zM520 184q0 42 24.5 68.5t65.5 26.5q35 0 58.5 -29t23.5 -66q0 -42 -21.5 -67t-62.5 -25q-88 0 -88 92zM522 928q0 35 19 55.5t53 20.5q106 0 106 -115q0 -35 -15.5 -53.5t-57.5 -18.5q-48 0 -76.5 33.5t-28.5 77.5z" />
<glyph unicode="&#xf8;" horiz-adv-x="827" d="M59 506q0 124 29 221t79 157t114 91t139 31q98 0 178 -62l25 76l129 -8l-70 -164q84 -131 84 -363q0 -240 -98.5 -370.5t-261.5 -130.5q-119 0 -203 69l-43 -114l-66 24l62 141q-97 140 -97 402zM211 535q0 -48 1 -74t9 -72.5t25 -101.5l286 512q-58 98 -149 98 q-38 -1 -67.5 -17.5t-47.5 -47t-30 -64t-17.5 -78t-7.5 -79t-2 -76.5zM279 211q67 -121 157 -121q63 0 104 45.5t57.5 116.5t16.5 168q0 154 -32 252z" />
<glyph unicode="&#xf9;" horiz-adv-x="849" d="M70 950l149 27l33 -598q9 -157 41.5 -218t114.5 -61q37 0 68 22t50 58t30.5 67t18.5 64q5 22 9 90l20 562l96 34l35 -735l17 -264l-127 -16l-17 182l-8 -4q-13 -66 -76 -120t-141 -54q-127 0 -192 87t-80 294zM162 1358l143 43l166 -301l-61 12z" />
<glyph unicode="&#xfa;" horiz-adv-x="849" d="M70 950l149 27l33 -598q9 -157 41.5 -218t114.5 -61q37 0 68 22t50 58t30.5 67t18.5 64q5 22 9 90l20 562l96 34l35 -735l17 -264l-127 -16l-17 182l-8 -4q-13 -66 -76 -120t-141 -54q-127 0 -192 87t-80 294zM352 1094l129 303l168 -33l-227 -260z" />
<glyph unicode="&#xfb;" horiz-adv-x="849" d="M70 950l149 27l33 -598q9 -157 41.5 -218t114.5 -61q37 0 68 22t50 58t30.5 67t18.5 64q5 22 9 90l20 562l96 34l35 -735l17 -264l-127 -16l-17 182l-8 -4q-13 -66 -76 -120t-141 -54q-127 0 -192 87t-80 294zM201 1104l164 276l75 15l164 -299l-72 2l-149 202h-4 l-70 -178z" />
<glyph unicode="&#xfc;" horiz-adv-x="849" d="M70 950l149 27l33 -598q9 -157 41.5 -218t114.5 -61q37 0 68 22t50 58t30.5 67t18.5 64q5 22 9 90l20 562l96 34l35 -735l17 -264l-127 -16l-17 182l-8 -4q-13 -66 -76 -120t-141 -54q-127 0 -192 87t-80 294zM182 1227q0 33 28.5 62.5t65.5 29.5q36 0 61 -25.5t25 -64.5 q0 -35 -22.5 -63.5t-67.5 -28.5q-39 0 -64.5 26.5t-25.5 63.5zM510 1229q0 33 24 58.5t58 25.5q30 0 54 -22.5t24 -67.5q0 -70 -70 -78q-41 0 -65.5 27t-24.5 57z" />
<glyph unicode="&#xfd;" horiz-adv-x="735" d="M25 1030l186 -33l137 -784h4l238 776l90 -39l-129 -590q-46 -215 -106.5 -369t-157.5 -276q-63 -78 -191 -133l-47 62q63 34 113.5 102t76.5 138t39 120.5t13 69.5q0 25 -6 39zM336 1094l129 303l168 -33l-227 -260z" />
<glyph unicode="&#xfe;" horiz-adv-x="860" d="M96 -375l4 1630l191 111l-19 -500h4q75 138 222 138q135 0 212.5 -129t77.5 -345q0 -113 -19 -206.5t-51 -155t-74.5 -104t-88.5 -61.5t-94 -19q-143 0 -209 131h-4l-51 -508zM250 631q0 -27 2 -41l20 -240q4 -59 26 -113.5t67 -94.5t104 -40q84 0 132 82.5t48 239.5 q0 79 -12.5 155.5t-37.5 147t-70.5 113.5t-104.5 43q-72 0 -123 -72.5t-51 -179.5z" />
<glyph unicode="&#xff;" horiz-adv-x="735" d="M25 1030l186 -33l137 -784h4l238 776l90 -39l-129 -590q-46 -215 -106.5 -369t-157.5 -276q-63 -78 -191 -133l-47 62q63 34 113.5 102t76.5 138t39 120.5t13 69.5q0 25 -6 39zM127 1227q0 33 28.5 62.5t65.5 29.5q36 0 61 -25.5t25 -64.5q0 -35 -22.5 -63.5t-67.5 -28.5 q-39 0 -64.5 26.5t-25.5 63.5zM455 1229q0 33 24 58.5t58 25.5q29 0 53 -22.5t24 -67.5q0 -70 -69 -78q-41 0 -65.5 27t-24.5 57z" />
<glyph unicode="&#x152;" horiz-adv-x="1331" d="M70 680q0 191 35 330t103.5 223.5t162 124t217.5 39.5q50 0 94 -6q79 -11 80 -11l500 17l-35 -170l-410 45l17 -490l337 -34l41 -86l-372 -19l22 -543l418 -10l-27 -133l-505 43q-12 0 -86 -8t-91 -8q-103 0 -187 37.5t-141.5 102t-97 153.5t-57.5 190t-18 213zM215 616 q0 -261 89 -388.5t269 -127.5q60 0 101 13l59 1122q-53 33 -145 33q-56 0 -107.5 -21.5t-100.5 -71t-85 -122.5t-58 -185.5t-22 -251.5z" />
<glyph unicode="&#x153;" horiz-adv-x="1316" d="M70 494q0 126 28.5 226t77.5 161t111.5 93t132.5 32q93 0 175 -55t120 -158h4q48 107 105 160t145 53q76 0 133.5 -36.5t89.5 -98t47.5 -132t15.5 -149.5q0 -17 -1 -43t-1 -35l-493 -39q1 -111 20 -187t54.5 -115.5t77.5 -55t98 -15.5q99 0 184 56l35 -111 q-81 -61 -223 -61q-116 0 -198 58t-116 175h-4q-33 -118 -109 -175.5t-169 -57.5q-159 0 -249.5 121t-90.5 389zM197 551q0 -81 13 -159.5t40 -150t75 -115.5t111 -44q102 0 150.5 97.5t48.5 258.5q0 79 -12 157.5t-38 154.5t-77 121.5t-119 41.5q-53 0 -92 -32.5t-59.5 -87 t-30.5 -115t-10 -127.5zM758 610l354 -24q2 20 2 59q0 112 -42 179t-116 67q-79 0 -131 -82.5t-67 -198.5z" />
<glyph unicode="&#x178;" horiz-adv-x="851" d="M49 1409l107 -29l311 -639h4l176 609l211 30l-362 -782l-45 -598l-119 16l12 576zM145 1579q0 55 29.5 82t65.5 27q41 0 69.5 -30.5t28.5 -70.5q0 -37 -29.5 -69.5t-79.5 -32.5q-84 11 -84 94zM506 1587q0 47 30 78t72 31q46 0 80.5 -36t34.5 -77q0 -45 -31 -76.5 t-78 -31.5q-55 0 -81.5 35t-26.5 77z" />
<glyph unicode="&#x2c6;" horiz-adv-x="614" d="M102 1104l164 276l76 15l164 -299l-72 2l-149 202h-4l-70 -178z" />
<glyph unicode="&#x2dc;" horiz-adv-x="614" d="M84 1149q2 71 34.5 119.5t88.5 48.5q21 0 39.5 -6.5t29.5 -13t39 -25.5q47 -31 63.5 -39t35.5 -8q45 0 53 73l45 29q5 -172 -125 -172q-38 0 -98 33q-61 33 -82 33q-44 -3 -47 -86z" />
<glyph unicode="&#x2000;" horiz-adv-x="895" />
<glyph unicode="&#x2001;" horiz-adv-x="1790" />
<glyph unicode="&#x2002;" horiz-adv-x="895" />
<glyph unicode="&#x2003;" horiz-adv-x="1790" />
<glyph unicode="&#x2004;" horiz-adv-x="596" />
<glyph unicode="&#x2005;" horiz-adv-x="447" />
<glyph unicode="&#x2006;" horiz-adv-x="298" />
<glyph unicode="&#x2007;" horiz-adv-x="298" />
<glyph unicode="&#x2008;" horiz-adv-x="223" />
<glyph unicode="&#x2009;" horiz-adv-x="358" />
<glyph unicode="&#x200a;" horiz-adv-x="99" />
<glyph unicode="&#x2010;" horiz-adv-x="585" d="M61 479l15 78l438 47l31 -117z" />
<glyph unicode="&#x2011;" horiz-adv-x="585" d="M61 479l15 78l438 47l31 -117z" />
<glyph unicode="&#x2012;" horiz-adv-x="585" d="M61 479l15 78l438 47l31 -117z" />
<glyph unicode="&#x2013;" horiz-adv-x="1024" d="M59 494l7 86l892 10l17 -117z" />
<glyph unicode="&#x2014;" horiz-adv-x="2048" d="M55 459l4 90l1907 47l25 -131z" />
<glyph unicode="&#x2018;" horiz-adv-x="366" d="M66 948q32 122 80 251t85 192l68 18q-24 -90 -49.5 -236t-36.5 -251z" />
<glyph unicode="&#x2019;" horiz-adv-x="366" d="M70 934q24 81 44 223t25 252l178 -8q-32 -119 -88.5 -267t-93.5 -212z" />
<glyph unicode="&#x201a;" horiz-adv-x="366" d="M61 -250q49 132 86 451l185 61q-30 -114 -94.5 -268.5t-106.5 -226.5z" />
<glyph unicode="&#x201c;" horiz-adv-x="630" d="M51 924q30 113 87.5 254t97.5 213l63 -11q-58 -206 -80 -426zM319 924q31 119 86 260t93 207l69 28q-24 -85 -50.5 -240.5t-33.5 -256.5z" />
<glyph unicode="&#x201d;" horiz-adv-x="630" d="M72 903q26 78 41.5 208.5t17.5 244.5l184 45q-32 -119 -86 -261t-92 -206zM322 942q29 83 62 222.5t48 242.5l154 -27q-28 -107 -90.5 -243t-112.5 -226z" />
<glyph unicode="&#x201e;" horiz-adv-x="630" d="M51 -250q29 77 57.5 216t43.5 255l149 -16q-31 -119 -85.5 -260.5t-92.5 -206.5zM313 -268q31 89 66 224.5t49 233.5l164 48q-29 -110 -90.5 -253t-106.5 -223z" />
<glyph unicode="&#x2022;" horiz-adv-x="524" d="M68 686q0 211 211 211q76 0 127 -51.5t51 -130.5q0 -81 -61.5 -143.5t-139.5 -65.5q-79 -5 -133.5 47t-54.5 133z" />
<glyph unicode="&#x2026;" horiz-adv-x="2048" d="M240 88q0 49 30 83t72 34q41 0 70.5 -30t29.5 -79q0 -43 -25 -78.5t-69 -35.5q-14 0 -20 2q-16 3 -26.5 7t-27.5 14.5t-25.5 31.5t-8.5 51zM924 102q0 50 29.5 84.5t72.5 34.5q45 0 71.5 -33.5t26.5 -85.5t-26 -83t-72 -31q-48 0 -75 33t-27 81zM1606 86q0 46 28 80.5 t70 34.5q44 0 74 -29.5t30 -73.5q0 -13 -4.5 -28.5t-15 -35t-34.5 -32t-58 -12.5q-30 0 -50.5 12.5t-28 32t-9.5 30.5t-2 21z" />
<glyph unicode="&#x202f;" horiz-adv-x="358" />
<glyph unicode="&#x2039;" horiz-adv-x="442" d="M68 510l208 364l130 -40l-218 -306l148 -350l-62 -18z" />
<glyph unicode="&#x203a;" horiz-adv-x="442" d="M47 160l215 346l-215 368l98 -16l248 -319l-176 -351z" />
<glyph unicode="&#x205f;" horiz-adv-x="447" />
<glyph unicode="&#x20ac;" d="M-6 498l24 112l95 -2v4v78q0 8 1 24.5t1 24.5l-92 2l16 66l84 6q64 535 432 535q48 0 90 -13.5t57.5 -23.5t38.5 -29l-51 -104q-9 5 -25.5 16t-27.5 16.5t-32 11t-46 5.5q-119 0 -195.5 -106t-99.5 -298l182 15l242 24l-20 -127l-383 2h-27q-2 -25 -2 -78q0 -37 2 -55 l127 -4l287 -2l-15 -76l-266 -6l-127 -6q22 -202 109 -318t231 -116q45 0 107 20l30 -63q-87 -49 -202 -49h-17q-75 0 -141 29t-122.5 89t-93.5 162.5t-48 239.5z" />
<glyph unicode="&#x2122;" horiz-adv-x="1402" d="M12 1397l482 -49l18 -70l-209 -2l47 -721l-127 23l10 700l-204 16zM563 571l119 803l141 31l129 -684l11 4l235 631l133 24l-43 -807l-61 -22l10 727l-8 4l-217 -713l-88 17l-185 692h-6q-1 -20 -4 -79t-6 -99l-43 -547z" />
<glyph unicode="&#x25fc;" horiz-adv-x="983" d="M0 0v983h983v-983h-983z" />
</font>
</defs>
</svg>
